<?xml version="1.0" encoding="UTF-8" standalone="no"?>
<svg
   viewBox="0 0 58 58"
   fill="#ffffff"
   fill-rule="evenodd"
   stroke="#000000"
   stroke-linecap="round"
   stroke-linejoin="round"
   version="1.1"
   id="svg11"
   sodipodi:docname="ap.svg"
   width="58"
   height="58"
   inkscape:version="1.4.3 (0d15f75, 2025-12-25)"
   xmlns:inkscape="http://www.inkscape.org/namespaces/inkscape"
   xmlns:sodipodi="http://sodipodi.sourceforge.net/DTD/sodipodi-0.dtd"
   xmlns:xlink="http://www.w3.org/1999/xlink"
   xmlns="http://www.w3.org/2000/svg"
   xmlns:svg="http://www.w3.org/2000/svg">
  <sodipodi:namedview
     id="namedview11"
     pagecolor="#ffffff"
     bordercolor="#000000"
     borderopacity="0.25"
     inkscape:showpageshadow="2"
     inkscape:pageopacity="0.0"
     inkscape:pagecheckerboard="0"
     inkscape:deskcolor="#d1d1d1"
     inkscape:zoom="7.6551724"
     inkscape:cx="17.308559"
     inkscape:cy="27.105856"
     inkscape:window-width="1920"
     inkscape:window-height="1009"
     inkscape:window-x="-8"
     inkscape:window-y="-8"
     inkscape:window-maximized="1"
     inkscape:current-layer="svg11" />
  <style
     id="style1"><![CDATA[.B{stroke-linejoin:miter}.C{fill:none}.D{stroke-width:.787}.E{stroke-width:1.574}]]></style>
  <use
     xlink:href="#A"
     x="0.5"
     y="0.5"
     id="use1"
     transform="translate(0.09500559,16.2875)" />
  <symbol
     id="A"
     overflow="visible">
    <g
       stroke="#ffffff"
       class="B"
       id="g4">
      <g
         fill="#036897"
         stroke-width="0.788"
         id="g2">
        <path
           d="M 0,9.064 12.201,0 H 56.282 L 47.624,9.053 H 0 Z m 47.624,15.35 8.658,-9.053 V 0.011 l -8.658,9.053 z"
           id="path1" />
        <path
           d="M 47.624,24.414 V 9.064 H 0 v 15.35 z"
           id="path2" />
      </g>
      <g
         class="C"
         id="g3">
        <use
           xlink:href="#C"
           class="D"
           id="use2" />
        <use
           xlink:href="#D"
           class="E"
           id="use3" />
      </g>
    </g>
    <use
       xlink:href="#E"
       class="B C D"
       id="use4" />
    <use
       xlink:href="#F"
       class="B C E"
       id="use5" />
    <g
       stroke="#ffffff"
       id="g7">
      <use
         xlink:href="#C"
         class="B C D"
         id="use6" />
      <use
         xlink:href="#D"
         class="B C E"
         id="use7" />
    </g>
    <use
       xlink:href="#E"
       class="B C D"
       id="use8" />
    <use
       xlink:href="#F"
       class="B C E"
       id="use9" />
    <g
       stroke="#ffffff"
       id="g11">
      <use
         xlink:href="#C"
         class="B C D"
         id="use10" />
      <use
         xlink:href="#D"
         class="B C E"
         id="use11" />
    </g>
  </symbol>
  <defs
     id="defs11">
    <path
       id="C"
       d="m 43.68,16.947 c 0,0 -3.149,7.872 -6.691,0 -3.542,-7.872 -6.691,0 -6.691,0 0,0 -3.149,7.872 -7.084,0 -3.542,-7.872 -6.691,0 -6.691,0 0,0 -3.149,7.872 -6.691,0 -3.542,-7.872 -6.691,0 -6.691,0" />
    <path
       id="D"
       d="m 3.141,16.947 c 0,0 3.149,7.872 6.691,0 3.542,-7.872 6.691,0 6.691,0 0,0 3.149,7.872 7.084,0 3.542,-7.872 6.691,0 6.691,0 0,0 3.149,7.872 6.691,0 3.542,-7.872 6.691,0 6.691,0" />
    <path
       id="E"
       d="m 44.467,16.947 c 0,0 -3.149,7.872 -6.691,0 -3.936,-7.872 -6.691,0 -6.691,0 0,0 -3.149,7.872 -7.084,0 -3.542,-7.872 -6.691,0 -6.691,0 0,0 -3.149,7.872 -6.691,0 -3.936,-7.872 -6.691,0 -6.691,0" />
    <path
       id="F"
       d="m 3.928,16.947 c 0,0 2.755,7.872 6.691,0 3.542,-7.872 6.691,0 6.691,0 0,0 3.149,7.872 6.691,0 3.936,-7.872 7.084,0 7.084,0 0,0 2.755,7.872 6.691,0 3.542,-7.872 6.691,0 6.691,0" />
  </defs>
</svg>
