<?xml version="1.0" encoding="UTF-8" standalone="no"?>
<!-- Created with Inkscape (http://www.inkscape.org/) -->

<svg
   width="34.146999mm"
   height="34.146999mm"
   viewBox="0 0 34.146999 34.146999"
   version="1.1"
   id="svg1"
   xml:space="preserve"
   inkscape:version="1.4.3 (0d15f75, 2025-12-25)"
   sodipodi:docname="cloud.svg"
   xmlns:inkscape="http://www.inkscape.org/namespaces/inkscape"
   xmlns:sodipodi="http://sodipodi.sourceforge.net/DTD/sodipodi-0.dtd"
   xmlns="http://www.w3.org/2000/svg"
   xmlns:svg="http://www.w3.org/2000/svg"><sodipodi:namedview
     id="namedview1"
     pagecolor="#ffffff"
     bordercolor="#000000"
     borderopacity="0.25"
     inkscape:showpageshadow="2"
     inkscape:pageopacity="0.0"
     inkscape:pagecheckerboard="0"
     inkscape:deskcolor="#d1d1d1"
     inkscape:document-units="mm"
     inkscape:zoom="2.4945156"
     inkscape:cx="85.38732"
     inkscape:cy="51.513007"
     inkscape:window-width="1360"
     inkscape:window-height="697"
     inkscape:window-x="-8"
     inkscape:window-y="-8"
     inkscape:window-maximized="1"
     inkscape:current-layer="layer1" /><defs
     id="defs1"><path
       id="C"
       d="M 44.721,8.565 C 22.287,4.236 10.086,15.65 12.054,25.883 v 0.394 C -5.657,29.425 -0.934,50.285 7.725,50.285 H 8.512 C 6.15,60.124 27.01,69.964 38.424,64.847 l 0.787,-0.787 c 3.936,9.052 18.892,10.233 33.061,10.627 12.595,0.394 19.679,-0.394 25.189,-5.904 h 0.787 c 20.073,1.574 29.125,-12.201 24.796,-22.041 l 1.181,-0.394 c 6.691,-1.574 7.478,-17.318 -4.329,-19.679 l 0.394,-0.787 C 125.407,15.649 113.206,6.203 96.675,7.777 L 95.494,7.383 C 83.686,-3.636 49.444,-1.668 45.508,8.959 Z" /></defs><g
     inkscape:label="Capa 1"
     inkscape:groupmode="layer"
     id="layer1"
     transform="translate(-38.819437,-144.95552)"><path
       id="use4"
       d="m 50.651569,154.40334 c -5.935662,-1.14539 -9.163844,1.87457 -8.643144,4.58205 v 0.10425 c -4.686035,0.8329 -3.436408,6.35211 -1.145381,6.35211 h 0.208227 c -0.624946,2.60324 4.894263,5.20674 7.914217,3.85287 l 0.208227,-0.20823 c 1.0414,2.39501 4.998508,2.70748 8.747389,2.81173 3.332427,0.10424 5.206736,-0.10425 6.66459,-1.5621 h 0.208227 c 5.310981,0.41645 7.705989,-3.22819 6.560608,-5.83169 l 0.312473,-0.10424 c 1.770327,-0.41646 1.978554,-4.58206 -1.145381,-5.20674 l 0.104246,-0.20822 c 1.353873,-2.70749 -1.874309,-5.20674 -6.248136,-4.79029 l -0.312472,-0.10424 c -3.1242,-2.91544 -12.184063,-2.39474 -13.225463,0.41698 z"
       style="fill:#ffffff;fill-rule:evenodd;stroke:none;stroke-width:0.264583;stroke-linecap:round;stroke-linejoin:round" /><path
       id="use5"
       d="m 50.651569,154.40334 c -5.935662,-1.14539 -9.163844,1.87457 -8.643144,4.58205 v 0.10425 c -4.686035,0.8329 -3.436408,6.35211 -1.145381,6.35211 h 0.208227 c -0.624946,2.60324 4.894263,5.20674 7.914217,3.85287 l 0.208227,-0.20823 c 1.0414,2.39501 4.998508,2.70748 8.747389,2.81173 3.332427,0.10424 5.206736,-0.10425 6.66459,-1.5621 h 0.208227 c 5.310981,0.41645 7.705989,-3.22819 6.560608,-5.83169 l 0.312473,-0.10424 c 1.770327,-0.41646 1.978554,-4.58206 -1.145381,-5.20674 l 0.104246,-0.20822 c 1.353873,-2.70749 -1.874309,-5.20674 -6.248136,-4.79029 l -0.312472,-0.10424 c -3.1242,-2.91544 -12.184063,-2.39474 -13.225463,0.41698 z"
       style="fill:#0f73a0;fill-opacity:1;fill-rule:evenodd;stroke:none;stroke-width:0.208227;stroke-linecap:round;stroke-linejoin:miter" /><path
       id="path40-1"
       style="fill:#ffffff;fill-opacity:1;stroke:#ffffff;stroke-width:0.272155"
       d="m 64.297739,156.21023 a 2.8639221,2.8639224 0 0 0 -2.863908,2.8639 2.8639221,2.8639224 0 0 0 0.0016,0.0941 l -5.962944,-1.21388 0.609782,1.27279 -4.440039,0.29455 a 2.8639221,2.8639224 0 0 0 -2.799829,-2.26136 2.8639221,2.8639224 0 0 0 -2.863908,2.86391 2.8639221,2.8639224 0 0 0 2.863908,2.86391 2.8639221,2.8639224 0 0 0 1.763716,-0.6072 l 2.532146,2.70319 -0.04031,-0.90692 1.469161,1.36323 a 2.8639221,2.8639224 0 0 0 -0.335897,1.34513 2.8639221,2.8639224 0 0 0 2.863908,2.86391 2.8639221,2.8639224 0 0 0 2.863908,-2.86391 2.8639221,2.8639224 0 0 0 -0.428398,-1.50688 l 2.446363,-2.55592 -0.903304,0.0904 1.373559,-1.65313 h 5.17e-4 a 2.8639221,2.8639224 0 0 0 1.850016,0.67799 2.8639221,2.8639224 0 0 0 2.863908,-2.86391 2.8639221,2.8639224 0 0 0 -2.863908,-2.8639 z m -7.261055,2.8577 4.398698,0.10594 a 2.8639221,2.8639224 0 0 0 0.955497,2.03708 l -2.421558,2.04536 0.838192,0.14314 -1.316716,1.91668 a 2.8639221,2.8639224 0 0 0 -2.395719,-1.29449 2.8639221,2.8639224 0 0 0 -2.475301,1.42368 l -1.804541,-2.38952 -0.188619,0.82941 -1.986959,-1.53117 a 2.8639221,2.8639224 0 0 0 1.066602,-2.22984 2.8639221,2.8639224 0 0 0 -0.05219,-0.54364 l 6.390308,0.601 z" /></g><style
     id="style1"><![CDATA[.B{stroke-width:.787}.C{stroke-linejoin:miter}.D{stroke:#fff}.E{stroke-linecap:square}.F{fill:none}.G{stroke:none}.H{fill:#046897}.I{stroke-linejoin:bevel}]]></style></svg>
