<?xml version="1.0" encoding="UTF-8" standalone="no"?>
<svg
   viewBox="0 0 68 68"
   fill="#ffffff"
   fill-rule="evenodd"
   stroke="#000000"
   stroke-linecap="round"
   stroke-linejoin="round"
   version="1.1"
   id="svg6"
   sodipodi:docname="hub.svg"
   width="68"
   height="68"
   inkscape:version="1.4.3 (0d15f75, 2025-12-25)"
   xmlns:inkscape="http://www.inkscape.org/namespaces/inkscape"
   xmlns:sodipodi="http://sodipodi.sourceforge.net/DTD/sodipodi-0.dtd"
   xmlns:xlink="http://www.w3.org/1999/xlink"
   xmlns="http://www.w3.org/2000/svg"
   xmlns:svg="http://www.w3.org/2000/svg">
  <defs
     id="defs6" />
  <sodipodi:namedview
     id="namedview6"
     pagecolor="#ffffff"
     bordercolor="#000000"
     borderopacity="0.25"
     inkscape:showpageshadow="2"
     inkscape:pageopacity="0.0"
     inkscape:pagecheckerboard="0"
     inkscape:deskcolor="#d1d1d1"
     inkscape:zoom="3.5357143"
     inkscape:cx="28.424242"
     inkscape:cy="38.323232"
     inkscape:window-width="1360"
     inkscape:window-height="697"
     inkscape:window-x="-8"
     inkscape:window-y="-8"
     inkscape:window-maximized="1"
     inkscape:current-layer="svg6" />
  <use
     xlink:href="#A"
     x="0.5"
     y="0.5"
     id="use1"
     transform="translate(0.34455594,16.9795)" />
  <symbol
     id="A"
     overflow="visible">
    <g
       stroke="#ffffff"
       stroke-linejoin="miter"
       fill="#0e6f9c"
       stroke-width="0.787"
       id="g4">
      <path
         d="M 58.61,15.734 66.477,0 H 12.194 L 0,15.734 Z"
         id="path1" />
      <path
         d="M 66.477,14.554 V 0 L 58.61,15.734 v 17.308 z"
         id="path2" />
      <path
         d="M 58.61,33.042 V 15.734 H 0 v 17.307 h 58.61 z"
         id="path3" />
      <path
         d="m 9.834,30.681 v -3.54 h -3.54 v 3.54 z m 5.114,0 v -3.54 h -3.54 v 3.54 z m 5.114,0 v -3.54 h -3.54 v 3.54 z m 5.114,0 v -3.54 h -3.54 v 3.54 z m 5.113,0 v -3.54 h -3.54 v 3.54 z m 5.114,0 v -3.54 h -3.54 v 3.54 z m 5.114,0 v -3.54 h -3.54 v 3.54 z m 5.113,0 v -3.54 h -3.54 v 3.54 z m 5.114,0 v -3.54 h -3.54 v 3.54 z"
         id="path4" />
    </g>
    <g
       stroke="none"
       id="g6">
      <path
         d="m 49.169,7.081 1.967,-1.967 3.934,2.36 -7.867,1.967 1.573,-1.573 H 33.435 l 0.393,-0.787 z"
         id="path5" />
      <path
         d="M 34.615,7.08 34.222,7.867 H 18.881 L 17.308,9.44 12.981,7.473 21.635,4.72 19.275,7.08 h 15.341 z"
         id="path6" />
    </g>
  </symbol>
</svg>
