<?xml version="1.0" encoding="UTF-8" standalone="no"?>
<svg
   viewBox="0 0 60 60"
   fill="#ffffff"
   fill-rule="evenodd"
   stroke="#000000"
   stroke-linecap="round"
   stroke-linejoin="round"
   version="1.1"
   id="svg5"
   sodipodi:docname="router.svg"
   width="60"
   height="60"
   inkscape:version="1.4.3 (0d15f75, 2025-12-25)"
   xmlns:inkscape="http://www.inkscape.org/namespaces/inkscape"
   xmlns:sodipodi="http://sodipodi.sourceforge.net/DTD/sodipodi-0.dtd"
   xmlns:xlink="http://www.w3.org/1999/xlink"
   xmlns="http://www.w3.org/2000/svg"
   xmlns:svg="http://www.w3.org/2000/svg">
  <sodipodi:namedview
     id="namedview5"
     pagecolor="#ffffff"
     bordercolor="#000000"
     borderopacity="0.25"
     inkscape:showpageshadow="2"
     inkscape:pageopacity="0.0"
     inkscape:pagecheckerboard="0"
     inkscape:deskcolor="#d1d1d1"
     inkscape:zoom="4.9207317"
     inkscape:cx="10.973978"
     inkscape:cy="21.236679"
     inkscape:window-width="1920"
     inkscape:window-height="1009"
     inkscape:window-x="-8"
     inkscape:window-y="-8"
     inkscape:window-maximized="1"
     inkscape:current-layer="svg5" />
  <use
     xlink:href="#A"
     x="0.5"
     y="0.5"
     id="use1"
     transform="translate(0.363,9.8125)" />
  <symbol
     id="A"
     overflow="visible">
    <use
       xlink:href="#C"
       stroke="none"
       fill="#0e6f9c"
       id="use2" />
    <use
       xlink:href="#C"
       stroke="#ffffff"
       stroke-linejoin="miter"
       fill="none"
       stroke-width="0.788"
       id="use3" />
    <use
       xlink:href="#D"
       stroke="none"
       fill="#0e6f9c"
       id="use4" />
    <use
       xlink:href="#D"
       stroke="#ffffff"
       stroke-linejoin="miter"
       fill="none"
       stroke-width="0.788"
       id="use5" />
    <path
       d="m 22.448,7.081 2.363,3.544 -9.056,1.969 1.969,-1.575 L 3.942,8.656 7.486,5.9 20.874,8.262 22.449,7.081 Z m 12.994,8.662 -1.969,-3.543 8.269,-1.969 -1.181,1.575 13.388,2.362 -3.15,2.363 -13.781,-2.363 -1.575,1.575 z M 30.717,5.113 39.773,2.751 40.167,6.295 37.804,5.901 33.473,9.839 29.142,9.052 33.473,5.508 30.717,5.114 Z m -3.937,14.175 -8.662,1.575 -0.394,-4.331 2.756,0.787 4.725,-4.331 4.331,0.787 -5.119,4.725 2.362,0.788 z"
       stroke="none"
       id="path5" />
  </symbol>
  <defs
     id="defs5">
    <path
       id="C"
       d="m 58.274,11.419 c 0,6.3 -12.994,11.419 -29.137,11.419 C 12.994,22.838 0,17.719 0,11.419 v 16.537 c 0,6.3 12.994,11.419 29.137,11.419 16.143,0 29.137,-5.119 29.137,-11.419 z" />
    <path
       id="D"
       d="m 29.137,22.837 c 16.144,0 29.137,-5.119 29.137,-11.419 C 58.274,5.118 45.281,0 29.137,0 12.993,0 0,5.119 0,11.419 c 0,6.3 12.994,11.419 29.137,11.419 z" />
  </defs>
</svg>
