<?xml version="1.0" encoding="UTF-8" standalone="no"?>
<svg
   viewBox="0 0 42.313992 37.522896"
   fill="#ffffff"
   fill-rule="evenodd"
   stroke="#000000"
   stroke-linecap="round"
   stroke-linejoin="round"
   version="1.1"
   id="svg17"
   sodipodi:docname="screen.svg"
   width="42.313992"
   height="37.522896"
   inkscape:version="1.4.3 (0d15f75, 2025-12-25)"
   xmlns:inkscape="http://www.inkscape.org/namespaces/inkscape"
   xmlns:sodipodi="http://sodipodi.sourceforge.net/DTD/sodipodi-0.dtd"
   xmlns:xlink="http://www.w3.org/1999/xlink"
   xmlns="http://www.w3.org/2000/svg"
   xmlns:svg="http://www.w3.org/2000/svg">
  <sodipodi:namedview
     id="namedview17"
     pagecolor="#ffffff"
     bordercolor="#000000"
     borderopacity="0.25"
     inkscape:showpageshadow="2"
     inkscape:pageopacity="0.0"
     inkscape:pagecheckerboard="0"
     inkscape:deskcolor="#d1d1d1"
     inkscape:zoom="8.40625"
     inkscape:cx="32.237918"
     inkscape:cy="22.899628"
     inkscape:window-width="1920"
     inkscape:window-height="1009"
     inkscape:window-x="-8"
     inkscape:window-y="-8"
     inkscape:window-maximized="1"
     inkscape:current-layer="svg17" />
  <use
     xlink:href="#C"
     id="use21"
     transform="translate(-5.2835302,1.162904)"
     style="fill:#126d99;stroke:#ffffff;stroke-width:0.787;stroke-linejoin:round" />
  <path
     d="m 1.4054698,36.572904 v -1.967 H 35.63547 v 1.967 z"
     id="path22"
     style="fill:#126d99;stroke:#ffffff;stroke-width:0.787;stroke-linejoin:round" />
  <use
     xlink:href="#C"
     id="use22"
     transform="translate(-5.2835302,1.162904)"
     style="fill:#126d99;stroke:#ffffff;stroke-width:0.787;stroke-linejoin:round" />
  <path
     d="m 1.4054698,36.572904 v -1.967 H 35.63547 v 1.967 z"
     id="path23"
     style="fill:#126d99;stroke:#ffffff;stroke-width:0.787;stroke-linejoin:round" />
  <path
     d="m 35.63547,36.572904 v -1.967 l 5.902,-5.902 v 1.967 z"
     fill="#0e6a98"
     id="path24"
     style="stroke:#ffffff;stroke-width:0.787;stroke-linejoin:round" />
  <path
     d="m 41.53747,1.162904 h -31.083 l -9.0490002,2.361 H 37.20947 Z m -5.902,30.689 -1.574,-1.18 H 4.9464698 l 1.574,1.18 z m 0.393,0 -1.967,-1.574 7.475,-3.935 -5.508,5.508 z"
     fill="#126d99"
     id="path25"
     style="stroke:#ffffff;stroke-width:0.787;stroke-linejoin:round" />
  <path
     d="m 37.20847,3.523904 v 26.754 l 4.328,-3.935 v -25.18 z"
     fill="#0e6a98"
     id="path26"
     style="stroke:#ffffff;stroke-width:0.787;stroke-linejoin:round" />
  <path
     d="m 37.20947,30.671904 v -27.148 H 1.4054698 v 27.148 z"
     id="path27"
     style="fill:#126d99;stroke:#ffffff;stroke-width:0.787;stroke-linejoin:round"
     sodipodi:nodetypes="ccccc" />
  <use
     xlink:href="#D"
     stroke="none"
     fill="#126d99"
     id="use32"
     transform="translate(-5.2835302,1.162904)"
     style="stroke-linejoin:round" />
  <use
     xlink:href="#D"
     stroke="#ffffff"
     stroke-linejoin="miter"
     fill="none"
     stroke-width="0.787"
     id="use33"
     transform="translate(-5.2835302,1.162904)"
     style="stroke-linejoin:round" />
  <use
     xlink:href="#C"
     id="use5"
     style="fill:#126d99;stroke:#ffffff;stroke-width:0.787;stroke-linejoin:round"
     transform="translate(-5.7835302,0.66290402)" />
  <path
     d="m 0.90546984,36.072904 v -1.967 H 35.13547 v 1.967 z"
     id="path6"
     style="fill:#126d99;stroke:#ffffff;stroke-width:0.787;stroke-linejoin:round" />
  <use
     xlink:href="#C"
     id="use6"
     style="fill:#126d99;stroke:#ffffff;stroke-width:0.787;stroke-linejoin:round"
     transform="translate(-5.7835302,0.66290402)" />
  <path
     d="m 0.90546984,36.072904 v -1.967 H 35.13547 v 1.967 z"
     id="path7"
     style="fill:#126d99;stroke:#ffffff;stroke-width:0.787;stroke-linejoin:round" />
  <path
     d="m 35.13547,36.072904 v -1.967 l 5.902,-5.902 v 1.967 z"
     fill="#0e6a98"
     id="path8"
     style="stroke:#ffffff;stroke-width:0.787;stroke-linejoin:round" />
  <path
     d="M 41.03747,0.66290402 H 9.9544698 L 0.90546984,3.023904 H 36.70947 Z m -5.902,30.68899998 -1.574,-1.18 H 4.4464698 l 1.574,1.18 z m 0.393,0 -1.967,-1.574 7.475,-3.935 -5.508,5.508 z"
     fill="#126d99"
     id="path9"
     style="stroke:#ffffff;stroke-width:0.787;stroke-linejoin:round" />
  <path
     d="m 36.70847,3.023904 v 26.754 l 4.328,-3.935 V 0.66290402 Z"
     fill="#0e6a98"
     id="path10"
     style="stroke:#ffffff;stroke-width:0.787;stroke-linejoin:round" />
  <path
     d="m 36.70947,30.171904 v -27.148 H 0.90546984 v 27.148 z"
     id="path11"
     style="fill:#126d99;stroke:#ffffff;stroke-width:0.787;stroke-linejoin:round"
     sodipodi:nodetypes="ccccc" />
  <use
     xlink:href="#D"
     stroke="none"
     fill="#126d99"
     id="use16"
     transform="translate(-5.7835302,0.66290402)"
     style="stroke-linejoin:round" />
  <use
     xlink:href="#D"
     stroke="#ffffff"
     stroke-linejoin="miter"
     fill="none"
     stroke-width="0.787"
     id="use17"
     transform="translate(-5.7835302,0.66290402)"
     style="stroke-linejoin:round" />
  <defs
     id="defs17">
    <path
       id="C"
       d="m 46.821,27.541 -4.328,5.902 H 6.689 l 5.508,-5.902 H 46.82 Z" />
    <path
       id="D"
       d="m 11.799,5.121 h 25.18 c 1.967,0 3.148,1.18 3.148,2.754 v 16.131 c 0,1.574 -1.18,3.148 -3.148,3.148 h -25.18 c -1.574,0 -2.754,-1.574 -2.754,-3.148 V 7.875 c 0,-1.574 1.18,-2.754 2.754,-2.754 z" />
  </defs>
</svg>
