<?xml version="1.0" encoding="UTF-8" standalone="no"?>
<svg
   viewBox="0 0 80 80"
   fill="#ffffff"
   fill-rule="evenodd"
   stroke="#000000"
   stroke-linecap="round"
   stroke-linejoin="round"
   version="1.1"
   id="svg12"
   sodipodi:docname="ap.svg"
   width="80"
   height="80"
   inkscape:version="1.4.3 (0d15f75, 2025-12-25)"
   xmlns:inkscape="http://www.inkscape.org/namespaces/inkscape"
   xmlns:sodipodi="http://sodipodi.sourceforge.net/DTD/sodipodi-0.dtd"
   xmlns:xlink="http://www.w3.org/1999/xlink"
   xmlns="http://www.w3.org/2000/svg"
   xmlns:svg="http://www.w3.org/2000/svg">
  <sodipodi:namedview
     id="namedview12"
     pagecolor="#ffffff"
     bordercolor="#000000"
     borderopacity="0.25"
     inkscape:showpageshadow="2"
     inkscape:pageopacity="0.0"
     inkscape:pagecheckerboard="0"
     inkscape:deskcolor="#d1d1d1"
     inkscape:zoom="4.9814815"
     inkscape:cx="15.758364"
     inkscape:cy="44.866171"
     inkscape:window-width="1920"
     inkscape:window-height="1009"
     inkscape:window-x="1912"
     inkscape:window-y="-8"
     inkscape:window-maximized="1"
     inkscape:current-layer="svg12" />
  <use
     xlink:href="#D"
     x="0.5"
     y="0.5"
     id="use1"
     transform="translate(1.99975,-0.50029794)" />
  <defs
     id="defs4">
    <linearGradient
       id="A"
       x1="1"
       y1="0"
       x2="0"
       y2="1">
      <stop
         offset="0%"
         id="stop1" />
      <stop
         offset="100%"
         stop-color="gray"
         id="stop2" />
    </linearGradient>
    <linearGradient
       id="B"
       x1="42.716434"
       y1="70.503517"
       x2="70.918266"
       y2="70.503517"
       gradientTransform="scale(1.0575554,0.9455769)"
       gradientUnits="userSpaceOnUse">
      <stop
         offset="0%"
         stop-color="#c9c9c9"
         id="stop3" />
      <stop
         offset="100%"
         stop-color="#b0b0b0"
         id="stop4" />
    </linearGradient>
    <path
       id="C"
       d="m 32.403,70.025 q 1.002,0.507 1.123,-0.647 0.08,-1.347 -1.069,-1.92 -0.883,-0.329 -1.03,0.52 -0.147,1.347 0.976,2.047 z" />
    <linearGradient
       inkscape:collect="always"
       xlink:href="#A"
       id="linearGradient12"
       x1="194.02446"
       y1="6.4679022"
       x2="181.89742"
       y2="18.594946"
       gradientTransform="scale(0.36381496,2.74865)"
       gradientUnits="userSpaceOnUse" />
    <linearGradient
       inkscape:collect="always"
       xlink:href="#A"
       id="linearGradient13"
       x1="109.1379"
       y1="0"
       x2="97.010857"
       y2="12.127044"
       gradientTransform="scale(0.36381496,2.74865)"
       gradientUnits="userSpaceOnUse" />
    <linearGradient
       inkscape:collect="always"
       xlink:href="#A"
       id="linearGradient14"
       x1="84.944962"
       y1="0"
       x2="42.471878"
       y2="42.473083"
       gradientTransform="scale(0.8309969,1.2033739)"
       gradientUnits="userSpaceOnUse" />
  </defs>
  <symbol
     id="D"
     overflow="visible">
    <g
       fill="url(#A)"
       stroke="none"
       id="g5"
       style="fill:url(#linearGradient14)">
      <path
         d="m 69.705,20 c 0,-1.231 -0.102,-2.222 -1.323,-2.222 -1.221,0 -1.323,0.991 -1.323,2.222 l -0.882,31.111 h 4.412 z"
         id="path4"
         style="fill:url(#linearGradient12)" />
      <path
         d="M 38.823,2.222 C 38.823,0.991 38.722,0 37.5,0 36.278,0 36.176,0.991 36.176,2.222 l -0.882,31.111 h 4.412 z"
         id="path5"
         style="fill:url(#linearGradient13)" />
    </g>
    <path
       d="m 31.41,27.119 q -1.53,-0.904 -3.059,0 L 0.82,43.39 q -1.529,0.904 0,1.808 l 42.826,25.311 q 1.529,0.904 3.059,0 L 74.236,54.238 q 1.529,-0.904 0,-1.808 L 31.41,27.119"
       fill="#e3e3e3"
       stroke="none"
       id="path6" />
    <path
       d="m 45.175,70.96 q 0.765,0 1.529,-0.452 L 74.235,54.237 Q 75,53.785 75,53.333 v 9.04 q 0,0.452 -0.765,0.904 L 46.704,79.548 Q 45.94,80 45.175,80 Z"
       fill="url(#B)"
       stroke="none"
       id="path7"
       style="fill:url(#B)" />
    <path
       d="m 45.175,70.96 q -0.792,0.017 -1.584,-0.451 L 0.765,45.198 Q 0,44.746 0,44.294 v 9.04 q 0,0.452 0.765,0.904 l 42.826,25.311 q 0.792,0.468 1.584,0.451 z"
       fill="#c9c9c9"
       stroke="none"
       id="path8" />
    <path
       d="M 43.897,72.445 V 78 L 0.662,52.222 v -5.333 z"
       fill="#3b4950"
       stroke="none"
       id="path9" />
    <use
       xlink:href="#C"
       fill="#ffea00"
       stroke="none"
       id="use9" />
    <use
       xlink:href="#C"
       x="3"
       y="1.727"
       fill="#cc584c"
       stroke="none"
       id="use10" />
    <use
       xlink:href="#C"
       x="6"
       y="3.4530001"
       fill="#f5f5f5"
       stroke="none"
       id="use11" />
    <path
       d="m 47.403,27.815 c 1.744,-0.551 2.99,-1.377 6.229,-0.551 2.741,1.101 4.485,3.304 6.229,5.782 0.498,0.826 0.249,1.101 -0.249,1.652 -0.498,0.275 -0.997,0.275 -1.495,-0.551 -0.997,-1.652 -2.741,-3.855 -4.236,-4.405 -2.741,-1.652 -5.233,0 -5.98,0.275 -0.997,0 -1.246,-0.551 -1.246,-1.101 0,-0.55 0.249,-0.826 0.748,-1.101 z m 0.845,4.907 c 1.029,-1.117 2.574,-1.397 4.633,-0.838 2.316,1.117 3.267,2.843 4.633,4.749 0.39,0.635 0.133,0.973 -0.257,1.397 -0.39,0.212 -0.897,0.077 -1.287,-0.559 -0.78,-1.27 -2.433,-3.487 -3.603,-3.91 -1.802,-0.838 -2.316,0.279 -3.603,0.838 -0.515,0 -0.515,0 -1.029,-0.559 0,-0.423 0.187,-0.692 0.515,-1.117 z M 46.33,22.367 c 2.317,-0.732 3.972,-1.829 8.276,-0.732 3.641,1.463 5.959,4.389 8.276,7.682 0.662,1.097 0.331,1.463 -0.331,2.195 -0.662,0.366 -1.324,0.366 -1.986,-0.731 -1.324,-2.195 -3.641,-5.121 -5.627,-5.853 -3.641,-2.195 -6.952,0 -7.945,0.366 -1.324,0 -1.655,-0.732 -1.655,-1.463 0,-0.731 0.331,-1.097 0.993,-1.463 z"
       stroke="none"
       fill="#e78244"
       id="path11" />
    <path
       d="m 12.735,55.003 v 3.486 L 1.555,52.053 v -3.486 z"
       fill="#cfd8dc"
       stroke="none"
       id="path12" />
  </symbol>
</svg>
