<?xml version="1.0" encoding="UTF-8" standalone="no"?>
<svg
   viewBox="0 0 76 76"
   fill="#ffffff"
   fill-rule="evenodd"
   stroke="#000000"
   stroke-linecap="round"
   stroke-linejoin="round"
   version="1.1"
   id="svg12"
   sodipodi:docname="cloud.svg"
   width="76"
   height="76"
   inkscape:version="1.4.3 (0d15f75, 2025-12-25)"
   xmlns:inkscape="http://www.inkscape.org/namespaces/inkscape"
   xmlns:sodipodi="http://sodipodi.sourceforge.net/DTD/sodipodi-0.dtd"
   xmlns:xlink="http://www.w3.org/1999/xlink"
   xmlns="http://www.w3.org/2000/svg"
   xmlns:svg="http://www.w3.org/2000/svg">
  <sodipodi:namedview
     id="namedview12"
     pagecolor="#ffffff"
     bordercolor="#000000"
     borderopacity="0.25"
     inkscape:showpageshadow="2"
     inkscape:pageopacity="0.0"
     inkscape:pagecheckerboard="0"
     inkscape:deskcolor="#d1d1d1"
     inkscape:zoom="5.6454493"
     inkscape:cx="30.024182"
     inkscape:cy="29.492781"
     inkscape:window-width="1360"
     inkscape:window-height="697"
     inkscape:window-x="-8"
     inkscape:window-y="-8"
     inkscape:window-maximized="1"
     inkscape:current-layer="svg12" />
  <path
     d="m 38.894596,20.19233 7.470975,1.738509 c 0,0 3.083576,3.477017 4.543376,3.477017 1.4598,0 2.438665,-2.172385 4.22242,-2.172385 1.783755,0 5.358265,1.517817 7.146019,1.737007 1.782756,0.217689 5.844198,7.390913 6.817064,6.521659 0.972867,-0.869254 1.946733,3.256325 1.297822,3.909392 -0.648911,0.653067 -6.657086,0.653067 -7.79093,0.872257 -1.133844,0.21919 -0.486933,0.651565 -1.625777,0.866251 -1.138844,0.214687 -5.02831,-3.044641 -5.845197,-2.172385 -0.816888,0.872257 -3.407533,-0.433876 -4.222421,0.433877 -0.814888,0.867753 -1.948732,1.738508 -1.948732,1.738508 0,0 -15.907816,-6.300967 -16.234771,-7.820285 -0.326956,-1.519318 0.973866,-6.739348 2.273687,-6.957037 1.299822,-0.217688 3.898465,-2.172385 3.898465,-2.172385 z"
     fill="url(#A)"
     id="path15"
     style="fill:url(#linearGradient18);fill-rule:nonzero;stroke:#92aabd;stroke-width:0.0281794;stroke-linejoin:miter" />
  <path
     d="m 13.000349,32.500541 c -0.648964,-0.824002 1.786901,-4.11621 3.24882,-4.526943 1.461919,-0.410734 3.894784,-2.469473 5.194712,-2.469473 1.299927,0 0.810955,-2.678642 2.273873,-3.29601 1.462919,-0.617368 2.759847,-0.616101 4.87073,0 2.110883,0.6161 3.572802,3.29601 5.845676,3.29601 2.272874,0 4.546748,2.057472 6.820621,1.648006 2.273874,-0.409466 3.083829,0.204099 4.220766,0.410733 1.136937,0.206635 5.033721,5.76168 7.145604,6.174949 2.111882,0.413269 6.493639,-1.237272 7.467585,0 0.973946,1.237272 1.951892,5.144312 3.24982,5.762948 1.297928,0.618636 2.594856,6.585682 0.647964,7.41222 -1.946892,0.826538 -20.784847,0.822735 -20.784847,0.822735 L 34.106178,35.796552 23.556753,41.938243 15.212072,38.525627 c 0,0 -3.957066,-1.213036 -2.214723,-6.02255 z"
     fill="url(#B)"
     id="path16"
     style="fill:url(#linearGradient19);fill-rule:nonzero;stroke:#92aabd;stroke-width:0.0258954;stroke-linejoin:miter"
     sodipodi:nodetypes="cssssssssssscccccc" />
  <path
     d="m 0.66001087,47.6464 c -0.48497271,1.592337 1.29892693,2.731924 1.62390863,3.643032 0.3249817,0.911109 -1.45991785,1.135381 -0.6489635,2.274968 0.8109544,1.139586 11.039379,-1.139587 12.339306,0 1.299927,1.139586 5.771194,1.559398 6.746139,3.151736 0.974946,1.592337 3.248818,-2.959 5.198708,-2.274968 1.94989,0.684032 3.73379,2.047891 5.517689,2.274968 1.7839,0.227076 3.73579,-1.820816 8.119544,-0.909707 4.383753,0.911108 6.819616,2.959 8.117543,1.820815 1.297927,-1.138185 6.495634,0.685434 8.767506,0.454153 2.271873,-0.231282 6.733102,-3.834367 9.171965,-3.60729 l 8.440525,0.911108 c 0.975945,0.228478 -0.647963,-1.590935 -0.647963,-2.274968 0,-0.684032 3.085826,-1.365261 1.623908,-3.187478 -1.461917,-1.822217 -1.786899,-1.592337 -5.196707,-1.365261 -3.409808,0.227077 -3.249817,-0.228478 -4.219763,-0.908305 -0.975945,-0.685434 -0.489972,-2.050695 -1.95189,-3.187478 -1.461918,-1.136783 -6.659625,2.04649 -8.442525,0.908305 -1.7829,-1.138184 -5.035717,1.139587 -7.146598,0.456956 -2.110881,-0.68263 -4.059771,-4.325662 -5.519689,-4.55414 -1.459918,-0.228478 -2.110881,0.913911 -3.248817,0.454152 -1.137936,-0.459759 0.322981,-2.04649 0.975945,-3.186076 0.652963,-1.139587 1.460918,-6.142273 -0.975945,-6.373554 -2.436863,-0.231282 -3.894781,-2.503446 -5.196708,-2.730523 -1.301927,-0.227076 -1.460918,3.186077 -2.922835,3.186077 -1.461918,0 -2.109882,3.187478 -3.244818,3.187478 -1.134936,0 -0.975945,1.365261 -2.599854,1.365261 -1.623908,0 -2.922835,-2.959 -4.221762,-2.733326 -1.298927,0.225675 -2.758845,1.596543 -2.921836,2.733326 -0.11504,0.80235 -1.113341,2.917434 0.974946,6.373554 0.637594,1.055221 -1.460918,1.819414 -2.599854,1.365261 -1.138936,-0.454152 -1.459918,1.136783 -3.896781,0.454153 -2.436863,-0.682631 -3.4098083,2.279173 -5.5196896,1.822217 -2.1098812,-0.456956 -6.0086619,-1.140989 -6.49463453,0.45275 z"
     fill="url(#C)"
     id="path17"
     style="fill:url(#linearGradient20);fill-rule:nonzero;stroke:#92aabd;stroke-width:0.0272298;stroke-linejoin:miter"
     sodipodi:nodetypes="csssssssssccssscssssssssssssssssscc" />
  <defs
     id="defs10">
    <linearGradient
       id="A"
       y2="1.0299"
       x2="0.48099998"
       y1="0.1302"
       x1="0.52819997">
      <stop
         stop-color="#fdfdfe"
         offset="7.3%"
         id="stop1" />
      <stop
         stop-color="#dde3e9"
         offset="61.2%"
         id="stop2" />
      <stop
         stop-color="#b4c6d3"
         offset="100%"
         id="stop3" />
    </linearGradient>
    <linearGradient
       id="B"
       y2="0.95359999"
       x2="0.47849998"
       y1="0.1216"
       x1="0.53619999">
      <stop
         stop-color="#fdfdfe"
         offset="7.3%"
         id="stop4" />
      <stop
         stop-color="#dde3e9"
         offset="37.6%"
         id="stop5" />
      <stop
         stop-color="#b4c6d3"
         offset="86%"
         id="stop6" />
    </linearGradient>
    <linearGradient
       id="C"
       y2="1.0915"
       x2="0.50849998"
       y1="-0.012200001"
       x1="0.48290002">
      <stop
         stop-color="#fdfdfe"
         offset="7.3%"
         id="stop7" />
      <stop
         stop-color="#dde3e9"
         offset="56.7%"
         id="stop8" />
      <stop
         stop-color="#b8c8d5"
         offset="85.4%"
         id="stop9" />
      <stop
         stop-color="#9eb4c5"
         offset="100%"
         id="stop10" />
    </linearGradient>
    <linearGradient
       inkscape:collect="always"
       xlink:href="#A"
       id="linearGradient18"
       x1="27.792866"
       y1="2.6777928"
       x2="26.814482"
       y2="21.327227"
       gradientTransform="matrix(1.8309141,0,0,0.81986179,1.8216855,20.192329)"
       gradientUnits="userSpaceOnUse" />
    <linearGradient
       inkscape:collect="always"
       xlink:href="#B"
       id="linearGradient19"
       x1="23.47979"
       y1="15.003093"
       x2="23.37146"
       y2="37.315228"
       gradientTransform="matrix(1.5933434,0,0,0.79557613,0.5770381,16.8559)"
       gradientUnits="userSpaceOnUse" />
    <linearGradient
       inkscape:collect="always"
       xlink:href="#C"
       id="linearGradient20"
       x1="18.61323"
       y1="17.782928"
       x2="19.600285"
       y2="60.338142"
       gradientTransform="matrix(1.9417763,0,0,0.72182695,0.57701554,16.234184)"
       gradientUnits="userSpaceOnUse" />
    <linearGradient
       inkscape:collect="always"
       xlink:href="#A"
       id="linearGradient21"
       x1="27.792866"
       y1="2.6777928"
       x2="26.814482"
       y2="21.327227"
       gradientTransform="scale(1.8311655,0.54610029)"
       gradientUnits="userSpaceOnUse" />
    <linearGradient
       inkscape:collect="always"
       xlink:href="#B"
       id="linearGradient22"
       x1="25.258528"
       y1="10.104826"
       x2="23.37146"
       y2="37.315228"
       gradientTransform="scale(1.5934318,0.62757628)"
       gradientUnits="userSpaceOnUse" />
    <linearGradient
       inkscape:collect="always"
       xlink:href="#C"
       id="linearGradient23"
       x1="18.61323"
       y1="17.782928"
       x2="19.600285"
       y2="60.338142"
       gradientTransform="scale(1.9418856,0.51496338)"
       gradientUnits="userSpaceOnUse" />
  </defs>
  <symbol
     id="D"
     overflow="visible">
    <g
       stroke="#92aabd"
       stroke-linejoin="miter"
       fill-rule="nonzero"
       stroke-width="0.023"
       id="g12">
      <path
         d="m 37.078,0 7.472,1.158 c 0,0 3.084,2.316 4.544,2.316 1.46,0 2.439,-1.447 4.223,-1.447 1.784,0 5.359,1.011 7.147,1.157 1.783,0.145 5.845,4.923 6.818,4.344 0.973,-0.579 1.947,2.169 1.298,2.604 -0.649,0.435 -6.658,0.435 -7.792,0.581 -1.134,0.146 -0.487,0.434 -1.626,0.577 -1.139,0.143 -5.029,-2.028 -5.846,-1.447 -0.817,0.581 -3.408,-0.289 -4.223,0.289 -0.815,0.578 -1.949,1.158 -1.949,1.158 0,0 -15.91,-4.197 -16.237,-5.209 C 30.58,5.069 31.881,1.592 33.181,1.447 34.481,1.302 37.08,0 37.08,0 Z"
         fill="url(#A)"
         id="path10"
         style="fill:url(#linearGradient21)" />
      <path
         d="m 12.424,12.341 c -0.649,-0.65 1.787,-3.247 3.249,-3.571 1.462,-0.324 3.895,-1.948 5.195,-1.948 1.3,0 0.811,-2.113 2.274,-2.6 1.463,-0.487 2.76,-0.486 4.871,0 2.111,0.486 3.573,2.6 5.846,2.6 2.273,0 4.547,1.623 6.821,1.3 2.274,-0.323 3.084,0.161 4.221,0.324 1.137,0.163 5.034,4.545 7.146,4.871 2.112,0.326 6.494,-0.976 7.468,0 0.974,0.976 1.952,4.058 3.25,4.546 1.298,0.488 2.595,5.195 0.648,5.847 -1.947,0.652 -20.786,0.649 -20.786,0.649 l -9.096,-9.418 -8.07,1.631 -8.168,-4.229 c 0,0 -4.223,0.65 -4.872,0 z"
         fill="url(#B)"
         id="path11"
         style="fill:url(#linearGradient22)" />
      <path
         d="m 0.083,22.41 c -0.485,1.136 1.299,1.949 1.624,2.599 0.325,0.65 -1.46,0.81 -0.649,1.623 0.811,0.813 11.04,-0.813 12.34,0 1.3,0.813 5.521,0.487 6.496,1.623 0.975,1.136 3.249,-2.111 5.199,-1.623 1.95,0.488 3.734,1.461 5.518,1.623 1.784,0.162 3.736,-1.299 8.12,-0.649 4.384,0.65 6.82,2.111 8.118,1.299 1.298,-0.812 6.496,0.489 8.768,0.324 2.272,-0.165 6.984,-2.11 9.423,-1.948 l 8.441,0.65 c 0.976,0.163 -0.648,-1.135 -0.648,-1.623 0,-0.488 3.086,-0.974 1.624,-2.274 -1.462,-1.3 -1.787,-1.136 -5.197,-0.974 -3.41,0.162 -3.25,-0.163 -4.22,-0.648 -0.976,-0.489 -0.49,-1.463 -1.952,-2.274 -1.462,-0.811 -6.66,1.46 -8.443,0.648 -1.783,-0.812 -5.036,0.813 -7.147,0.326 -2.111,-0.487 -4.06,-3.086 -5.52,-3.249 -1.46,-0.163 -2.111,0.652 -3.249,0.324 -1.138,-0.328 0.323,-1.46 0.976,-2.273 0.653,-0.813 1.461,-4.382 -0.976,-4.547 -2.437,-0.165 -3.895,-1.786 -5.197,-1.948 -1.302,-0.162 -1.461,2.273 -2.923,2.273 -1.462,0 -2.11,2.274 -3.245,2.274 -1.135,0 -0.976,0.974 -2.6,0.974 -1.624,0 -2.923,-2.111 -4.222,-1.95 -1.299,0.161 -2.759,1.139 -2.922,1.95 -0.163,0.811 0.648,2.76 1.624,2.923 0.976,0.163 3.245,0.163 4.546,0 1.301,-0.163 3.734,0.324 3.899,1.95 0.165,1.626 0.648,3.086 -1.3,3.247 -1.948,0.161 -4.221,-1.624 -5.197,-1.3 -0.976,0.324 -1.624,-2.436 -2.597,-2.273 -0.973,0.163 -1.461,1.298 -2.6,0.974 -1.139,-0.324 -1.46,0.811 -3.897,0.324 -2.437,-0.487 -3.41,1.626 -5.52,1.3 -2.11,-0.326 -6.009,-0.814 -6.495,0.323 z"
         fill="url(#C)"
         id="path12"
         style="fill:url(#linearGradient23)" />
    </g>
  </symbol>
</svg>
