<?xml version="1.0" encoding="UTF-8" standalone="no"?>
<svg
   viewBox="0 0 81 81"
   fill="#ffffff"
   fill-rule="evenodd"
   stroke="#000000"
   stroke-linecap="round"
   stroke-linejoin="round"
   version="1.1"
   id="svg17"
   sodipodi:docname="firewall.svg"
   width="81"
   height="81"
   inkscape:version="1.4.3 (0d15f75, 2025-12-25)"
   xmlns:inkscape="http://www.inkscape.org/namespaces/inkscape"
   xmlns:sodipodi="http://sodipodi.sourceforge.net/DTD/sodipodi-0.dtd"
   xmlns:xlink="http://www.w3.org/1999/xlink"
   xmlns="http://www.w3.org/2000/svg"
   xmlns:svg="http://www.w3.org/2000/svg">
  <sodipodi:namedview
     id="namedview17"
     pagecolor="#ffffff"
     bordercolor="#000000"
     borderopacity="0.25"
     inkscape:showpageshadow="2"
     inkscape:pageopacity="0.0"
     inkscape:pagecheckerboard="0"
     inkscape:deskcolor="#d1d1d1"
     inkscape:zoom="6.6147541"
     inkscape:cx="25.019827"
     inkscape:cy="38.021066"
     inkscape:window-width="1920"
     inkscape:window-height="1009"
     inkscape:window-x="-8"
     inkscape:window-y="-8"
     inkscape:window-maximized="1"
     inkscape:current-layer="svg17" />
  <style
     id="style1"><![CDATA[.B{stroke:none}.C{font-family:Lato}.D{font-size:11px}.E{fill:#000}.F{fill:url(#A)}.G{fill:#788f9b}]]></style>
  <path
     d="m 34.003,11.007919 q -1.631,-1.017 -3.263,0 l -29.366,18.306 q -1.631,1.017 0,2.034 l 45.714,28.652 q 1.631,1.017 3.23,-0.178 l 29.366,-18.305 q 1.631,-1.017 0,-2.034 l -45.681,-28.475"
     fill="#cfd8dc"
     class="B"
     id="path1" />
  <path
     d="m 48.686,60.330919 q 0.816,0 1.631,-0.508 l 29.366,-18.305 q 0.817,-0.509 0.817,-1.018 v 10.17 q 0,0.508 -0.816,1.017 l -29.367,18.305 q -0.816,0.508 -1.631,0.508 z"
     fill="#b0bec5"
     id="path18"
     style="stroke:none" />
  <path
     d="m 48.686,60.328919 q -0.845,0.019 -1.69,-0.508 l -45.68,-28.474 q -0.816,-0.508 -0.816,-1.017 v 10.17 q 0,0.509 0.816,1.017 l 45.681,28.475 q 0.845,0.527 1.69,0.508 z"
     fill="#eceff1"
     id="path19"
     style="stroke:none" />
  <path
     d="m 40.529,58.804919 v 3.051 l 0.699,1.525 1.631,1.017 0.932,-0.763 v -2.796 z"
     class="B F"
     id="path20"
     style="fill:url(#linearGradient32)" />
  <path
     d="m 35.868,56.008919 v 3.051 l 0.699,1.525 1.631,1.017 0.932,-0.763 v -2.796 z"
     class="B F"
     id="path21"
     style="fill:url(#linearGradient33)" />
  <path
     d="m 31.206,52.957919 v 3.051 l 0.699,1.525 1.631,1.017 0.932,-0.763 v -2.796 z"
     class="B F"
     id="path22"
     style="fill:url(#linearGradient34)" />
  <path
     d="m 26.545,50.160919 v 3.051 l 0.699,1.525 1.631,1.017 0.932,-0.763 v -2.796 z"
     class="B F"
     id="path23"
     style="fill:url(#linearGradient35)" />
  <path
     d="m 21.884,47.363919 v 3.051 l 0.699,1.525 1.631,1.017 0.932,-0.763 v -2.796 z"
     class="B F"
     id="path24"
     style="fill:url(#linearGradient36)" />
  <path
     d="m 17.222,44.313919 v 3.051 l 0.699,1.525 1.631,1.017 0.932,-0.763 v -2.796 z"
     class="B F"
     id="path25"
     style="fill:url(#linearGradient37)" />
  <path
     d="m 12.561,41.516919 v 3.051 l 0.699,1.525 1.631,1.017 0.932,-0.763 v -2.796 z"
     class="B F"
     id="path26"
     style="fill:url(#linearGradient38)" />
  <path
     d="m 7.9,38.465919 v 3.051 l 0.699,1.525 1.631,1.017 0.932,-0.763 v -2.796 z"
     class="B F"
     id="path27"
     style="fill:url(#linearGradient39)" />
  <path
     d="m 3.238,35.669919 v 3.051 l 0.699,1.525 1.631,1.017 0.932,-0.763 v -2.796 z"
     class="B F"
     id="path28"
     style="fill:url(#linearGradient40)" />
  <defs
     id="defs2">
    <linearGradient
       id="A"
       x1="1"
       y1="0"
       x2="0"
       y2="1">
      <stop
         offset="0%"
         stop-color="#333"
         id="stop1" />
      <stop
         offset="100%"
         stop-color="#999"
         id="stop2" />
    </linearGradient>
    <linearGradient
       inkscape:collect="always"
       xlink:href="#A"
       id="linearGradient17"
       x1="4.2713423"
       y1="0"
       x2="0"
       y2="4.2713423"
       gradientTransform="scale(0.76369433,1.3094244)"
       gradientUnits="userSpaceOnUse" />
    <linearGradient
       inkscape:collect="always"
       xlink:href="#A"
       id="linearGradient18"
       x1="4.2713423"
       y1="0"
       x2="0"
       y2="4.2713423"
       gradientTransform="scale(0.76369433,1.3094244)"
       gradientUnits="userSpaceOnUse" />
    <linearGradient
       inkscape:collect="always"
       xlink:href="#A"
       id="linearGradient19"
       x1="4.2713423"
       y1="0"
       x2="0"
       y2="4.2713423"
       gradientTransform="scale(0.76369433,1.3094244)"
       gradientUnits="userSpaceOnUse" />
    <linearGradient
       inkscape:collect="always"
       xlink:href="#A"
       id="linearGradient20"
       x1="4.2713423"
       y1="0"
       x2="0"
       y2="4.2713423"
       gradientTransform="scale(0.76369433,1.3094244)"
       gradientUnits="userSpaceOnUse" />
    <linearGradient
       inkscape:collect="always"
       xlink:href="#A"
       id="linearGradient21"
       x1="4.2713423"
       y1="0"
       x2="0"
       y2="4.2713423"
       gradientTransform="scale(0.76369433,1.3094244)"
       gradientUnits="userSpaceOnUse" />
    <linearGradient
       inkscape:collect="always"
       xlink:href="#A"
       id="linearGradient22"
       x1="4.2713423"
       y1="0"
       x2="0"
       y2="4.2713423"
       gradientTransform="scale(0.76369433,1.3094244)"
       gradientUnits="userSpaceOnUse" />
    <linearGradient
       inkscape:collect="always"
       xlink:href="#A"
       id="linearGradient23"
       x1="4.2713423"
       y1="0"
       x2="0"
       y2="4.2713423"
       gradientTransform="scale(0.76369433,1.3094244)"
       gradientUnits="userSpaceOnUse" />
    <linearGradient
       inkscape:collect="always"
       xlink:href="#A"
       id="linearGradient24"
       x1="4.2713423"
       y1="0"
       x2="0"
       y2="4.2713423"
       gradientTransform="scale(0.76369433,1.3094244)"
       gradientUnits="userSpaceOnUse" />
    <linearGradient
       inkscape:collect="always"
       xlink:href="#A"
       id="linearGradient25"
       x1="4.2713423"
       y1="0"
       x2="0"
       y2="4.2713423"
       gradientTransform="scale(0.76369433,1.3094244)"
       gradientUnits="userSpaceOnUse" />
    <linearGradient
       inkscape:collect="always"
       xlink:href="#A"
       id="linearGradient32"
       gradientUnits="userSpaceOnUse"
       gradientTransform="matrix(0.76369433,0,0,1.3094244,40.529,58.804919)"
       x1="4.2713423"
       y1="0"
       x2="0"
       y2="4.2713423" />
    <linearGradient
       inkscape:collect="always"
       xlink:href="#A"
       id="linearGradient33"
       gradientUnits="userSpaceOnUse"
       gradientTransform="matrix(0.76369433,0,0,1.3094244,35.868,56.008919)"
       x1="4.2713423"
       y1="0"
       x2="0"
       y2="4.2713423" />
    <linearGradient
       inkscape:collect="always"
       xlink:href="#A"
       id="linearGradient34"
       gradientUnits="userSpaceOnUse"
       gradientTransform="matrix(0.76369433,0,0,1.3094244,31.206,52.957919)"
       x1="4.2713423"
       y1="0"
       x2="0"
       y2="4.2713423" />
    <linearGradient
       inkscape:collect="always"
       xlink:href="#A"
       id="linearGradient35"
       gradientUnits="userSpaceOnUse"
       gradientTransform="matrix(0.76369433,0,0,1.3094244,26.545,50.160919)"
       x1="4.2713423"
       y1="0"
       x2="0"
       y2="4.2713423" />
    <linearGradient
       inkscape:collect="always"
       xlink:href="#A"
       id="linearGradient36"
       gradientUnits="userSpaceOnUse"
       gradientTransform="matrix(0.76369433,0,0,1.3094244,21.884,47.363919)"
       x1="4.2713423"
       y1="0"
       x2="0"
       y2="4.2713423" />
    <linearGradient
       inkscape:collect="always"
       xlink:href="#A"
       id="linearGradient37"
       gradientUnits="userSpaceOnUse"
       gradientTransform="matrix(0.76369433,0,0,1.3094244,17.222,44.313919)"
       x1="4.2713423"
       y1="0"
       x2="0"
       y2="4.2713423" />
    <linearGradient
       inkscape:collect="always"
       xlink:href="#A"
       id="linearGradient38"
       gradientUnits="userSpaceOnUse"
       gradientTransform="matrix(0.76369433,0,0,1.3094244,12.561,41.516919)"
       x1="4.2713423"
       y1="0"
       x2="0"
       y2="4.2713423" />
    <linearGradient
       inkscape:collect="always"
       xlink:href="#A"
       id="linearGradient39"
       gradientUnits="userSpaceOnUse"
       gradientTransform="matrix(0.76369433,0,0,1.3094244,7.9,38.465919)"
       x1="4.2713423"
       y1="0"
       x2="0"
       y2="4.2713423" />
    <linearGradient
       inkscape:collect="always"
       xlink:href="#A"
       id="linearGradient40"
       gradientUnits="userSpaceOnUse"
       gradientTransform="matrix(0.76369433,0,0,1.3094244,3.238,35.669919)"
       x1="4.2713423"
       y1="0"
       x2="0"
       y2="4.2713423" />
    <linearGradient
       id="A-0"
       x1="1"
       y1="0"
       x2="0"
       y2="1">
      <stop
         offset="0%"
         id="stop1-9" />
      <stop
         offset="100%"
         stop-color="gray"
         id="stop2-4" />
    </linearGradient>
    <linearGradient
       id="B-8"
       x1="42.716434"
       y1="70.503517"
       x2="70.918266"
       y2="70.503517"
       gradientTransform="scale(1.0575554,0.9455769)"
       gradientUnits="userSpaceOnUse">
      <stop
         offset="0%"
         stop-color="#c9c9c9"
         id="stop7" />
      <stop
         offset="100%"
         stop-color="#b0b0b0"
         id="stop8" />
    </linearGradient>
  </defs>
  <symbol
     id="B"
     overflow="visible">
    <path
       d="m 33.503,0.508 q -1.631,-1.017 -3.263,0 L 0.874,18.814 q -1.631,1.017 0,2.034 L 46.588,49.5 q 1.631,1.017 3.23,-0.178 L 79.184,31.017 q 1.631,-1.017 0,-2.034 L 33.503,0.508"
       fill="#cfd8dc"
       class="B"
       id="path2" />
    <g
       class="B"
       id="g4">
      <path
         d="m 48.186,49.831 q 0.816,0 1.631,-0.508 L 79.183,31.018 Q 80,30.509 80,30 v 10.17 q 0,0.508 -0.816,1.017 L 49.817,59.492 Q 49.001,60 48.186,60 Z"
         fill="#b0bec5"
         id="path3" />
      <path
         d="m 48.186,49.829 q -0.845,0.019 -1.69,-0.508 L 0.816,20.847 Q 0,20.339 0,19.83 V 30 q 0,0.509 0.816,1.017 l 45.681,28.475 q 0.845,0.527 1.69,0.508 z"
         fill="#eceff1"
         id="path4" />
    </g>
    <g
       transform="translate(40.029,48.305)"
       id="g5">
      <path
         d="M 0,0 V 3.051 L 0.699,4.576 2.33,5.593 3.262,4.83 V 2.034 Z"
         class="B F"
         id="path5"
         style="fill:url(#linearGradient17)" />
    </g>
    <g
       transform="translate(35.368,45.509)"
       id="g6">
      <path
         d="M 0,0 V 3.051 L 0.699,4.576 2.33,5.593 3.262,4.83 V 2.034 Z"
         class="B F"
         id="path6"
         style="fill:url(#linearGradient18)" />
    </g>
    <g
       transform="translate(30.706,42.458)"
       id="g7">
      <path
         d="M 0,0 V 3.051 L 0.699,4.576 2.33,5.593 3.262,4.83 V 2.034 Z"
         class="B F"
         id="path7"
         style="fill:url(#linearGradient19)" />
    </g>
    <g
       transform="translate(26.045,39.661)"
       id="g8">
      <path
         d="M 0,0 V 3.051 L 0.699,4.576 2.33,5.593 3.262,4.83 V 2.034 Z"
         class="B F"
         id="path8"
         style="fill:url(#linearGradient20)" />
    </g>
    <g
       transform="translate(21.384,36.864)"
       id="g9">
      <path
         d="M 0,0 V 3.051 L 0.699,4.576 2.33,5.593 3.262,4.83 V 2.034 Z"
         class="B F"
         id="path9"
         style="fill:url(#linearGradient21)" />
    </g>
    <g
       transform="translate(16.722,33.814)"
       id="g10">
      <path
         d="M 0,0 V 3.051 L 0.699,4.576 2.33,5.593 3.262,4.83 V 2.034 Z"
         class="B F"
         id="path10"
         style="fill:url(#linearGradient22)" />
    </g>
    <g
       transform="translate(12.061,31.017)"
       id="g11">
      <path
         d="M 0,0 V 3.051 L 0.699,4.576 2.33,5.593 3.262,4.83 V 2.034 Z"
         class="B F"
         id="path11"
         style="fill:url(#linearGradient23)" />
    </g>
    <g
       transform="translate(7.4,27.966)"
       id="g12">
      <path
         d="M 0,0 V 3.051 L 0.699,4.576 2.33,5.593 3.262,4.83 V 2.034 Z"
         class="B F"
         id="path12"
         style="fill:url(#linearGradient24)" />
    </g>
    <g
       transform="translate(2.738,25.17)"
       id="g13">
      <path
         d="M 0,0 V 3.051 L 0.699,4.576 2.33,5.593 3.262,4.83 V 2.034 Z"
         class="B F"
         id="path13"
         style="fill:url(#linearGradient25)" />
    </g>
    <path
       d="M 35.551,10.596 45.177,9.684 43.843,15.659 41.079,13.938 32.787,19 30.118,17.38 38.315,12.216 Z"
       class="B G"
       id="path14" />
    <path
       d="M 48.727,18.596 58.353,17.684 57.019,23.659 54.255,21.938 45.963,27 43.294,25.38 51.491,20.216 Z"
       class="B G"
       id="path15" />
    <path
       d="M 34.097,30.089 24.471,31 l 1.334,-5.975 2.764,1.722 8.292,-5.063 2.669,1.62 -8.197,5.165 z"
       class="B G"
       id="path16" />
    <path
       d="M 47.273,38.089 37.647,39 l 1.334,-5.975 2.764,1.722 8.292,-5.063 2.669,1.62 -8.197,5.164 z"
       class="B G"
       id="path17" />
  </symbol>
  <path
     id="rect41"
     style="fill:#e78244;fill-opacity:1;stroke:none;stroke-width:3.40157;stroke-linecap:round;stroke-linejoin:round;stroke-miterlimit:0;paint-order:stroke fill markers"
     d="m 37.8415,20.259826 -4.736329,2.939454 3.820314,2.380859 4.736328,-2.941406 z m 4.667969,2.908204 -4.736328,2.939453 8.488281,5.289062 4.736327,-2.941406 z m -10.34961,0.619141 -4.736328,2.941406 8.486328,5.287109 4.736328,-2.939453 z m -5.683593,3.529296 -4.736328,2.939453 3.818358,2.38086 4.736329,-2.941407 z m 25.371094,1.667969 -4.736328,2.939453 8.486327,5.289062 4.736328,-2.941406 z m -10.351563,0.619141 -4.736328,2.941406 8.488281,5.287109 4.736328,-2.939453 z m -10.351563,0.621093 -4.736328,2.939454 8.488281,5.289062 4.736329,-2.941406 z m -10.351562,0.621094 -4.736328,2.939453 8.488281,5.287109 4.736328,-2.939453 z m 40.390624,3.955078 -4.736327,2.941406 3.820312,2.378907 4.734375,-2.941406 z m -10.351562,0.619141 -4.736328,2.941406 8.488281,5.287109 4.736328,-2.939453 z m -10.351563,0.621094 -4.736328,2.941406 8.488282,5.287109 4.736328,-2.941406 z m -10.351562,0.621094 -4.736328,2.939453 8.488281,5.287109 4.736328,-2.939453 z m 19.687501,5.195312 -4.734376,2.941406 3.818359,2.378906 4.736328,-2.941406 z m -10.349611,0.621094 -4.736328,2.939453 8.486329,5.289063 4.736329,-2.941407 z" />
</svg>
