<?xml version="1.0" encoding="UTF-8" standalone="no"?>
<svg
   viewBox="0 0 81 81"
   fill="#ffffff"
   fill-rule="evenodd"
   stroke="#000000"
   stroke-linecap="round"
   stroke-linejoin="round"
   version="1.1"
   id="svg22"
   sodipodi:docname="server.svg"
   width="81"
   height="81"
   inkscape:version="1.4.3 (0d15f75, 2025-12-25)"
   xmlns:inkscape="http://www.inkscape.org/namespaces/inkscape"
   xmlns:sodipodi="http://sodipodi.sourceforge.net/DTD/sodipodi-0.dtd"
   xmlns:xlink="http://www.w3.org/1999/xlink"
   xmlns="http://www.w3.org/2000/svg"
   xmlns:svg="http://www.w3.org/2000/svg">
  <sodipodi:namedview
     id="namedview22"
     pagecolor="#ffffff"
     bordercolor="#000000"
     borderopacity="0.25"
     inkscape:showpageshadow="2"
     inkscape:pageopacity="0.0"
     inkscape:pagecheckerboard="0"
     inkscape:deskcolor="#d1d1d1"
     inkscape:zoom="6.1111111"
     inkscape:cx="31.009091"
     inkscape:cy="31.5"
     inkscape:window-width="1360"
     inkscape:window-height="697"
     inkscape:window-x="-8"
     inkscape:window-y="-8"
     inkscape:window-maximized="1"
     inkscape:current-layer="svg22" />
  <use
     xlink:href="#A"
     x="0.5"
     y="0.5"
     id="use1"
     transform="translate(10,2.346875e-4)" />
  <symbol
     id="A"
     overflow="visible">
    <g
       stroke="none"
       id="g3">
      <path
         d="M 0.359,48.708 30,30.803 59.82,48.898 30.179,66.803 Z"
         fill="#90a4ae"
         id="path1" />
      <path
         d="M 0,61.659 30.18,79.945 V 66.802 L 0.359,48.707 Q 0,48.897 0,49.278 Z"
         fill="#b0bec5"
         id="path2" />
      <path
         d="M 29.82,79.184 V 67.564 Q 30,66.421 30.898,65.85 L 59.102,48.898 Q 60,48.517 60,49.469 V 61.85 q 0,0.571 -0.898,1.143 L 30.898,79.869 Q 29.82,80.326 29.82,79.183 Z"
         fill="#eceff1"
         id="path3" />
    </g>
    <path
       d="M 33.593,71.565 48.862,62.422"
       fill="none"
       stroke-linejoin="miter"
       id="path4" />
    <g
       stroke="none"
       id="g10">
      <path
         d="m 50.838,62.5 v -3.121 l 0.491,0.312 v 3.121 z"
         fill="#e53935"
         id="path5" />
      <use
         xlink:href="#C"
         fill="#f44336"
         id="use5" />
      <use
         xlink:href="#D"
         fill="#ef5350"
         id="use6" />
      <path
         d="m 55.334,59.834 v -3.121 l 0.491,0.312 v 3.121 z"
         fill="#43a047"
         id="path6" />
      <use
         xlink:href="#C"
         x="4.4959998"
         y="-2.6659999"
         fill="#4caf50"
         id="use7" />
      <use
         xlink:href="#D"
         x="4.4959998"
         y="-2.6670001"
         fill="#66bb6a"
         id="use8" />
      <path
         d="M 0.359,33.47 30,15.565 59.82,33.66 30.179,51.565 Z"
         fill="#90a4ae"
         id="path8" />
      <path
         d="M 0,46.421 30.18,64.707 V 51.564 L 0.359,33.469 Q 0,33.659 0,34.04 Z"
         fill="#b0bec5"
         id="path9" />
      <path
         d="M 29.82,63.946 V 52.326 Q 30,51.183 30.898,50.612 L 59.101,33.66 q 0.898,-0.381 0.898,0.571 v 12.381 q 0,0.571 -0.898,1.143 L 30.898,64.631 Q 29.82,65.088 29.82,63.945 Z"
         fill="#eceff1"
         id="path10" />
    </g>
    <path
       d="M 33.593,56.327 48.862,47.184"
       fill="none"
       stroke-linejoin="miter"
       id="path11" />
    <g
       stroke="none"
       id="g17">
      <path
         d="m 50.838,47.262 v -3.121 l 0.491,0.312 v 3.121 z"
         fill="#e53935"
         id="path12" />
      <use
         xlink:href="#C"
         y="-15.238"
         fill="#f44336"
         id="use12" />
      <use
         xlink:href="#D"
         y="-15.239"
         fill="#ef5350"
         id="use13" />
      <path
         d="m 55.334,44.595 v -3.121 l 0.491,0.312 v 3.121 z"
         fill="#43a047"
         id="path13" />
      <use
         xlink:href="#C"
         x="4.4959998"
         y="-17.903999"
         fill="#4caf50"
         id="use14" />
      <use
         xlink:href="#D"
         x="4.4959998"
         y="-17.905001"
         fill="#66bb6a"
         id="use15" />
      <path
         d="M 0.359,17.905 30,0 59.82,18.095 30.179,36 Z"
         fill="#cfd8dc"
         id="path15" />
      <path
         d="M 0,30.857 30.18,49.143 V 36 L 0.359,17.905 Q 0,18.095 0,18.476 Z"
         fill="#b0bec5"
         id="path16" />
      <path
         d="M 29.82,48.381 V 36.761 Q 30,35.618 30.898,35.047 L 59.102,18.095 Q 60,17.714 60,18.666 v 12.381 q 0,0.571 -0.898,1.143 L 30.898,49.066 Q 29.82,49.523 29.82,48.38 Z"
         fill="#eceff1"
         id="path17" />
    </g>
    <path
       d="M 33.593,40.762 48.862,31.619"
       fill="none"
       stroke-linejoin="miter"
       id="path18" />
    <g
       stroke="none"
       id="g22">
      <path
         d="m 50.838,31.697 v -3.121 l 0.491,0.312 v 3.121 z"
         fill="#e53935"
         id="path19" />
      <use
         xlink:href="#C"
         y="-30.802"
         fill="#f44336"
         id="use19" />
      <use
         xlink:href="#D"
         y="-30.802999"
         fill="#ef5350"
         id="use20" />
      <path
         d="M 55.334,29.031 V 25.91 l 0.491,0.312 v 3.121 z"
         fill="#43a047"
         id="path20" />
      <use
         xlink:href="#C"
         x="4.4959998"
         y="-33.469002"
         fill="#4caf50"
         id="use21" />
      <use
         xlink:href="#D"
         x="4.4959998"
         y="-33.470001"
         fill="#66bb6a"
         id="use22" />
    </g>
  </symbol>
  <defs
     id="defs22">
    <path
       id="C"
       d="m 53.369,57.85 -2.531,1.529 0.491,0.312 2.558,-1.534 z" />
    <path
       id="D"
       d="m 53.887,61.261 v -3.103 l -2.558,1.534 v 3.121 z" />
  </defs>
</svg>
