<?xml version="1.0" encoding="UTF-8" standalone="no"?>
<svg
   viewBox="0 0 81 81"
   fill="#ffffff"
   fill-rule="evenodd"
   stroke="#000000"
   stroke-linecap="round"
   stroke-linejoin="round"
   version="1.1"
   id="svg34"
   sodipodi:docname="patch.svg"
   width="81"
   height="81"
   inkscape:version="1.4.3 (0d15f75, 2025-12-25)"
   xmlns:inkscape="http://www.inkscape.org/namespaces/inkscape"
   xmlns:sodipodi="http://sodipodi.sourceforge.net/DTD/sodipodi-0.dtd"
   xmlns:xlink="http://www.w3.org/1999/xlink"
   xmlns="http://www.w3.org/2000/svg"
   xmlns:svg="http://www.w3.org/2000/svg">
  <sodipodi:namedview
     id="namedview34"
     pagecolor="#ffffff"
     bordercolor="#000000"
     borderopacity="0.25"
     inkscape:showpageshadow="2"
     inkscape:pageopacity="0.0"
     inkscape:pagecheckerboard="0"
     inkscape:deskcolor="#d1d1d1"
     inkscape:zoom="12.227273"
     inkscape:cx="40.483271"
     inkscape:cy="33"
     inkscape:window-width="1920"
     inkscape:window-height="1009"
     inkscape:window-x="1912"
     inkscape:window-y="-8"
     inkscape:window-maximized="1"
     inkscape:current-layer="svg34" />
  <style
     id="style1"><![CDATA[.B{fill:#eee}.C{fill:#464646}.D{fill:#e0e0e0}.E{fill:#757575}]]></style>
  <use
     xlink:href="#A"
     x="0.5"
     y="0.5"
     id="use1"
     transform="translate(2.2914514e-4,7.5)" />
  <symbol
     id="A"
     overflow="visible">
    <g
       stroke="none"
       id="g34">
      <path
         d="M 53.442,40.698 79.564,26.194 33.714,0 7.809,14.829 Z"
         class="D"
         id="path1" />
      <path
         d="M 54.417,40.156 77.721,26.843 c 1.626,-0.974 2.276,-0.974 2.276,0.649 V 44.81 c 0,0.974 0.108,1.515 -1.084,2.165 l -24.93,14.179 c -0.867,0.541 -1.409,0.433 -1.301,-0.758 V 42.429 c 0,-1.082 -0.217,-1.299 1.734,-2.273 z"
         class="B"
         id="path2" />
      <path
         d="M 0,32.272 57.355,65 V 41.477 L 0.683,9.09 Q 0,9.431 0,10.113 Z"
         fill="#9e9e9e"
         id="path3" />
      <g
         class="B"
         id="g4">
        <use
           xlink:href="#C"
           id="use3" />
        <path
           d="M 9.553,26.278 4.65,23.496 v 5.787 l 4.903,2.782 z"
           id="path4" />
      </g>
      <use
         xlink:href="#D"
         class="C"
         id="use4" />
      <g
         class="B"
         id="g6">
        <use
           xlink:href="#C"
           x="5.7210002"
           y="3.0940001"
           id="use5" />
        <use
           xlink:href="#E"
           id="use6" />
      </g>
      <use
         xlink:href="#D"
         x="5.7210002"
         y="3.095"
         class="C"
         id="use7" />
      <g
         class="B"
         id="g9">
        <use
           xlink:href="#C"
           x="11.442"
           y="6.3070002"
           id="use8" />
        <use
           xlink:href="#E"
           x="5.7210002"
           y="3.2130001"
           id="use9" />
      </g>
      <path
         d="m 16.979,31.577 v 2.704 l 0.659,1.352 1.539,0.901 0.879,-0.676 V 33.38 Z"
         class="C"
         id="path9" />
      <g
         class="B"
         id="g11">
        <use
           xlink:href="#C"
           x="17.035"
           y="9.5799999"
           id="use10" />
        <use
           xlink:href="#E"
           x="11.314"
           y="6.4860001"
           id="use11" />
      </g>
      <use
         xlink:href="#D"
         x="17.034"
         y="9.5810003"
         class="C"
         id="use12" />
      <g
         class="B"
         id="g13">
        <path
           d="m 35.298,36.144 v -1.772 q -0.029,-0.174 -0.175,-0.261 l -4.568,-2.586 q -0.146,-0.058 -0.146,0.087 V 33.5 q 0,0.087 0.146,0.174 l 4.568,2.574 q 0.175,0.07 0.175,-0.105 z"
           id="path12" />
        <use
           xlink:href="#E"
           x="20.038"
           y="11.463"
           id="use13" />
      </g>
      <path
         d="m 31.297,39.827 v 2.704 l 0.659,1.352 1.539,0.901 0.879,-0.676 V 41.63 Z"
         class="C"
         id="path13" />
      <g
         class="B"
         id="g15">
        <use
           xlink:href="#C"
           x="31.48"
           y="17.650999"
           id="use14" />
        <use
           xlink:href="#E"
           x="25.759001"
           y="14.557"
           id="use15" />
      </g>
      <use
         xlink:href="#D"
         x="31.48"
         y="17.652"
         class="C"
         id="use16" />
      <g
         class="B"
         id="g17">
        <path
           d="M 46.739,42.452 V 40.68 Q 46.71,40.506 46.564,40.419 L 41.996,37.833 Q 41.85,37.775 41.85,37.92 v 1.888 q 0,0.087 0.146,0.174 l 4.568,2.574 q 0.175,0.07 0.175,-0.105 z"
           id="path16" />
        <use
           xlink:href="#E"
           x="31.48"
           y="17.77"
           id="use17" />
      </g>
      <use
         xlink:href="#D"
         x="37.200001"
         y="20.865"
         class="C"
         id="use18" />
      <g
         class="B"
         id="g20">
        <use
           xlink:href="#C"
           x="42.793999"
           y="24.138"
           id="use19" />
        <use
           xlink:href="#E"
           x="37.073002"
           y="21.042999"
           id="use20" />
      </g>
      <path
         d="m 48.331,49.407 v 2.704 l 0.659,1.352 1.539,0.901 0.879,-0.676 V 51.21 Z"
         class="C"
         id="path20" />
      <use
         xlink:href="#F"
         class="E"
         id="use21" />
      <use
         xlink:href="#G"
         class="D"
         id="use22" />
      <use
         xlink:href="#G"
         x="-0.101"
         y="0.050000001"
         class="B"
         id="use23" />
      <use
         xlink:href="#F"
         y="18.372999"
         class="E"
         id="use24" />
      <use
         xlink:href="#G"
         y="18.372999"
         class="D"
         id="use25" />
      <use
         xlink:href="#G"
         x="-0.101"
         y="18.423"
         class="B"
         id="use26" />
      <use
         xlink:href="#F"
         x="52.224998"
         y="29.632999"
         class="E"
         id="use27" />
      <use
         xlink:href="#G"
         x="52.226002"
         y="29.632999"
         class="D"
         id="use28" />
      <use
         xlink:href="#G"
         x="52.125"
         y="29.684"
         class="B"
         id="use29" />
      <use
         xlink:href="#F"
         x="52.224998"
         y="48.007"
         class="E"
         id="use30" />
      <use
         xlink:href="#G"
         x="52.226002"
         y="48.006001"
         class="D"
         id="use31" />
      <use
         xlink:href="#G"
         x="52.125"
         y="48.056999"
         class="B"
         id="use32" />
      <path
         d="m 57.355,65 0.212,-0.141 V 41.327 l -0.212,0.141 z"
         class="D"
         id="path32" />
      <path
         d="M 57.355,41.468 57.567,41.327 1.308,9.032 0.671,9.103 Z"
         fill="#bdbdbd"
         id="path33" />
      <path
         d="M 7.237,24.108 6.982,23.961 v -2.35 l -0.438,0.008 v -0.32 l 0.653,-0.003 0.04,0.023 v 2.788 z m 6.025,3.297 -1.165,-0.672 v -0.254 l 0.594,-0.706 a 1.23,1.23 0 0 0 0.187,-0.29 0.77,0.77 0 0 0 0.052,-0.299 1.02,1.02 0 0 0 -0.077,-0.403 0.51,0.51 0 0 0 -0.203,-0.254 c -0.106,-0.061 -0.188,-0.06 -0.246,0.004 -0.058,0.064 -0.087,0.187 -0.087,0.37 l -0.253,-0.146 c 0,-0.255 0.053,-0.432 0.158,-0.529 0.105,-0.097 0.248,-0.094 0.428,0.01 0.166,0.096 0.297,0.239 0.392,0.429 a 1.37,1.37 0 0 1 0.143,0.623 c 0,0.274 -0.107,0.537 -0.322,0.788 l -0.464,0.541 0.863,0.498 v 0.288 z m 5.116,1.321 0.162,0.093 c 0.104,0.06 0.184,0.064 0.241,0.011 0.057,-0.053 0.084,-0.153 0.084,-0.3 0,-0.325 -0.095,-0.542 -0.283,-0.651 -0.091,-0.052 -0.162,-0.049 -0.213,0.009 -0.051,0.058 -0.077,0.158 -0.077,0.3 L 18.04,28.043 c 0,-0.222 0.051,-0.376 0.152,-0.462 0.101,-0.086 0.232,-0.083 0.39,0.008 a 1,1 0 0 1 0.391,0.43 c 0.097,0.192 0.145,0.413 0.145,0.664 a 0.6,0.6 0 0 1 -0.075,0.316 c -0.05,0.082 -0.115,0.126 -0.195,0.132 0.197,0.21 0.295,0.483 0.295,0.82 0,0.248 -0.052,0.415 -0.155,0.502 -0.103,0.087 -0.239,0.082 -0.406,-0.014 C 18.415,30.343 18.283,30.197 18.182,30 A 1.4,1.4 0 0 1 18.03,29.351 l 0.253,0.146 c 0,0.147 0.027,0.28 0.08,0.398 0.053,0.118 0.127,0.203 0.219,0.257 0.092,0.054 0.17,0.055 0.225,0.002 0.055,-0.053 0.084,-0.166 0.084,-0.341 0,-0.337 -0.12,-0.574 -0.359,-0.712 L 18.38,29.014 v -0.288 z m 6.192,4.068 0.232,0.134 v 0.288 L 24.57,33.082 v 0.644 L 24.317,33.58 V 32.936 L 23.53,32.482 v -0.208 l 0.774,-1.477 0.266,0.153 v 1.843 z m -0.76,-0.438 0.507,0.292 v -1.319 z m 8.698,4.579 0.09,-1.332 0.906,0.522 v 0.326 l -0.693,-0.399 -0.049,0.729 c 0.086,-0.031 0.179,-0.017 0.278,0.04 0.162,0.093 0.29,0.251 0.382,0.472 0.092,0.221 0.139,0.473 0.139,0.757 0,0.284 -0.05,0.484 -0.151,0.589 -0.101,0.105 -0.239,0.108 -0.414,0.007 A 0.99,0.99 0 0 1 32.614,38.222 1.65,1.65 0 0 1 32.445,37.56 l 0.238,0.137 a 1.2,1.2 0 0 0 0.102,0.418 0.54,0.54 0 0 0 0.211,0.243 c 0.098,0.057 0.175,0.044 0.231,-0.038 0.056,-0.082 0.083,-0.219 0.083,-0.412 A 1.32,1.32 0 0 0 33.22,37.412 C 33.16,37.263 33.08,37.16 32.979,37.101 32.895,37.053 32.828,37.043 32.777,37.072 l -0.067,0.051 -0.202,-0.189 z m 6.458,2.191 v 0.299 l -0.042,-0.024 c -0.169,-0.092 -0.301,-0.093 -0.397,-0.001 -0.096,0.092 -0.15,0.281 -0.165,0.567 0.093,-0.102 0.211,-0.111 0.355,-0.028 0.154,0.089 0.276,0.243 0.366,0.463 a 1.94,1.94 0 0 1 0.135,0.74 c 0,0.291 -0.05,0.492 -0.15,0.604 -0.1,0.112 -0.234,0.119 -0.401,0.022 C 38.5,41.671 38.362,41.492 38.259,41.234 38.156,40.976 38.104,40.68 38.104,40.35 v -0.135 c 0,-0.381 0.031,-0.667 0.093,-0.857 0.062,-0.19 0.153,-0.306 0.274,-0.346 0.121,-0.04 0.271,-0.011 0.45,0.089 l 0.043,0.025 z m -0.291,1.083 c -0.069,-0.04 -0.132,-0.041 -0.19,-0.005 -0.058,0.036 -0.1,0.101 -0.126,0.194 v 0.139 c 0,0.225 0.03,0.425 0.089,0.601 0.059,0.176 0.133,0.289 0.22,0.339 0.094,0.054 0.168,0.039 0.222,-0.046 0.054,-0.085 0.08,-0.223 0.08,-0.414 a 1.5,1.5 0 0 0 -0.08,-0.506 c -0.053,-0.15 -0.125,-0.25 -0.215,-0.302 z m 6.224,2.558 -0.717,2.163 -0.265,-0.153 0.716,-2.073 -0.929,-0.536 v -0.29 l 1.195,0.689 v 0.198 z m 5.339,3.576 c 0,0.139 -0.023,0.248 -0.069,0.33 -0.046,0.082 -0.109,0.13 -0.187,0.146 a 1.37,1.37 0 0 1 0.218,0.399 c 0.053,0.149 0.079,0.299 0.079,0.45 0,0.239 -0.051,0.401 -0.153,0.485 -0.102,0.084 -0.236,0.078 -0.404,-0.019 a 1.03,1.03 0 0 1 -0.404,-0.448 c -0.101,-0.202 -0.152,-0.422 -0.152,-0.661 0,-0.152 0.026,-0.274 0.078,-0.364 0.052,-0.09 0.123,-0.14 0.213,-0.149 a 1.29,1.29 0 0 1 -0.185,-0.359 1.27,1.27 0 0 1 -0.067,-0.408 c 0,-0.234 0.048,-0.392 0.142,-0.474 0.094,-0.082 0.22,-0.079 0.376,0.011 a 0.96,0.96 0 0 1 0.374,0.42 1.42,1.42 0 0 1 0.142,0.641 z m -0.213,1.171 c 0,-0.159 -0.028,-0.302 -0.085,-0.431 -0.057,-0.129 -0.13,-0.219 -0.222,-0.272 -0.092,-0.053 -0.167,-0.048 -0.221,0.017 -0.054,0.065 -0.081,0.177 -0.081,0.335 0,0.158 0.027,0.3 0.079,0.419 0.052,0.119 0.128,0.207 0.225,0.263 0.097,0.056 0.172,0.055 0.225,-0.004 0.053,-0.059 0.079,-0.168 0.079,-0.328 z m -0.039,-1.311 a 0.99,0.99 0 0 0 -0.074,-0.388 c -0.05,-0.118 -0.113,-0.199 -0.19,-0.243 -0.077,-0.044 -0.146,-0.04 -0.193,0.02 -0.047,0.06 -0.072,0.162 -0.072,0.306 a 0.97,0.97 0 0 0 0.073,0.387 0.48,0.48 0 0 0 0.192,0.238 c 0.081,0.047 0.146,0.041 0.193,-0.018 0.047,-0.059 0.072,-0.159 0.072,-0.302 z"
         class="B"
         id="path34" />
    </g>
  </symbol>
  <defs
     id="defs34">
    <path
       id="C"
       d="M 9.538,21.587 V 19.815 Q 9.509,19.641 9.363,19.554 L 4.795,16.968 Q 4.649,16.91 4.649,17.055 v 1.888 q 0,0.087 0.146,0.174 l 4.568,2.574 q 0.175,0.07 0.175,-0.105 z" />
    <path
       id="D"
       d="m 5.538,25.269 v 2.704 l 0.659,1.352 1.539,0.901 0.879,-0.676 v -2.479 z" />
    <path
       id="E"
       d="m 15.274,29.373 -4.903,-2.782 v 5.787 l 4.903,2.782 z" />
    <path
       id="F"
       d="M 2.605,12.123 Q 1.826,11.733 1.733,12.621 1.671,13.658 2.564,14.1 3.25,14.353 3.364,13.7 3.478,12.663 2.606,12.124 Z" />
    <path
       id="G"
       d="M 2.594,12.216 Q 1.869,11.853 1.782,12.679 1.724,13.644 2.555,14.055 3.193,14.29 3.299,13.683 3.405,12.718 2.594,12.216 Z" />
  </defs>
</svg>
