<?xml version="1.0" encoding="UTF-8" standalone="no"?>
<svg
   viewBox="0 0 81 81"
   fill="#ffffff"
   fill-rule="evenodd"
   stroke="#000000"
   stroke-linecap="round"
   stroke-linejoin="round"
   version="1.1"
   id="svg25"
   sodipodi:docname="pc.svg"
   width="81"
   height="81"
   inkscape:version="1.4.3 (0d15f75, 2025-12-25)"
   xmlns:inkscape="http://www.inkscape.org/namespaces/inkscape"
   xmlns:sodipodi="http://sodipodi.sourceforge.net/DTD/sodipodi-0.dtd"
   xmlns:xlink="http://www.w3.org/1999/xlink"
   xmlns="http://www.w3.org/2000/svg"
   xmlns:svg="http://www.w3.org/2000/svg">
  <sodipodi:namedview
     id="namedview25"
     pagecolor="#ffffff"
     bordercolor="#000000"
     borderopacity="0.25"
     inkscape:showpageshadow="2"
     inkscape:pageopacity="0.0"
     inkscape:pagecheckerboard="0"
     inkscape:deskcolor="#d1d1d1"
     inkscape:zoom="7.0448787"
     inkscape:cx="38.964475"
     inkscape:cy="42.087311"
     inkscape:window-width="1920"
     inkscape:window-height="1009"
     inkscape:window-x="1912"
     inkscape:window-y="-8"
     inkscape:window-maximized="1"
     inkscape:current-layer="svg25" />
  <use
     xlink:href="#F"
     x="0.5"
     y="0.5"
     id="use1"
     transform="translate(2.5)" />
  <defs
     id="defs10">
    <linearGradient
       id="A"
       x1="0"
       y1="0.5"
       x2="1"
       y2="0.5">
      <stop
         offset="0%"
         stop-color="#c9c9c9"
         id="stop1" />
      <stop
         offset="100%"
         stop-color="#b0b0b0"
         id="stop2" />
    </linearGradient>
    <linearGradient
       id="B"
       x1="2.8560078"
       y1="0"
       x2="0"
       y2="2.8560078"
       gradientTransform="scale(1.0959355,0.9124625)"
       gradientUnits="userSpaceOnUse">
      <stop
         offset="0%"
         stop-color="#333"
         id="stop3" />
      <stop
         offset="100%"
         stop-color="#999"
         id="stop4" />
    </linearGradient>
    <linearGradient
       id="C"
       x1="45.846764"
       y1="63.775948"
       x2="36.984325"
       y2="77.203888"
       gradientTransform="scale(1.2838899,0.77888298)"
       gradientUnits="userSpaceOnUse">
      <stop
         offset="0%"
         stop-color="#b0b0b0"
         id="stop5" />
      <stop
         offset="100%"
         stop-color="#fff"
         id="stop6" />
    </linearGradient>
    <linearGradient
       id="D"
       x1="265.76276"
       y1="13.039738"
       x2="274.9346"
       y2="13.039738"
       gradientTransform="scale(0.27279216,3.6657945)"
       gradientUnits="userSpaceOnUse">
      <stop
         offset="0%"
         stop-color="#d6d6d6"
         id="stop7" />
      <stop
         offset="100%"
         stop-color="#c9c9c9"
         id="stop8" />
    </linearGradient>
    <linearGradient
       id="E"
       x1="81.534248"
       y1="10.030754"
       x2="40.569187"
       y2="50.995815"
       gradientTransform="scale(0.88917237,1.1246413)"
       gradientUnits="userSpaceOnUse">
      <stop
         offset="0%"
         stop-color="#00387f"
         id="stop9" />
      <stop
         offset="100%"
         stop-color="#0af"
         id="stop10" />
    </linearGradient>
    <linearGradient
       inkscape:collect="always"
       xlink:href="#A"
       id="linearGradient25"
       x1="15.8371"
       y1="20.363033"
       x2="47.512779"
       y2="20.363033"
       gradientTransform="scale(0.67651273,1.4781688)"
       gradientUnits="userSpaceOnUse" />
    <linearGradient
       inkscape:collect="always"
       xlink:href="#A"
       id="linearGradient26"
       x1="58.041039"
       y1="54.664597"
       x2="65.067665"
       y2="54.664597"
       gradientTransform="scale(0.94967291,1.0529941)"
       gradientUnits="userSpaceOnUse" />
  </defs>
  <symbol
     id="F"
     overflow="visible">
    <g
       stroke="none"
       id="g25">
      <path
         d="m 0,13.378 v 33.444 l 10.714,6.689 V 20.067 Z"
         fill="#c9c9c9"
         id="path10" />
      <path
         d="M 21.429,0 32.143,6.689 10.714,20.067 0,13.378 Z"
         fill="#e3e3e3"
         id="path11" />
      <path
         d="M 32.143,6.689 V 40.133 L 10.714,53.511 V 20.067 Z"
         fill="url(#A)"
         id="path12"
         style="fill:url(#linearGradient25)" />
      <path
         d="M 9.337,23.912 1.378,18.895 v -1.338 l 7.959,5.017 z m 0,2.174 -7.959,-5.016 v -1.338 l 7.959,5.017 z m 0,2.174 -7.959,-5.017 v -1.338 l 7.959,5.017 z"
         fill="#838383"
         id="path13" />
      <ellipse
         cx="1.5650001"
         cy="1.303"
         fill="url(#B)"
         rx="1.5650001"
         ry="1.303"
         transform="rotate(30.000012,-79.141185,30.512144)"
         id="ellipse13"
         style="fill:url(#B)" />
      <path
         d="m 54.564,49.674 -8.424,2.818 q -2.898,0.937 -0.504,2.408 l 7.938,4.816 q 2.016,1.204 4.032,-1.07 l 4.187,-4.784 z"
         fill="url(#C)"
         id="path14"
         style="fill:url(#C)" />
      <path
         d="m 61.793,53.862 -4.187,4.784 q -1.243,1.402 -2.486,1.482 v 1.133 q 1.243,-0.08 2.486,-1.498 l 4.187,-4.784 z"
         fill="url(#A)"
         id="path15"
         style="fill:url(#linearGradient26)" />
      <path
         d="m 44.561,53.583 q -0.102,0.594 1.075,1.317 l 7.938,4.816 q 0.773,0.462 1.546,0.412 v 1.133 q -0.773,0.05 -1.546,-0.428 L 45.636,56.017 Q 44.459,55.294 44.561,54.7 l -0.007,-1.117"
         fill="#c9c9c9"
         id="path16" />
      <path
         d="M 73.471,64.612 Q 75,64.333 75,62.937 V 32.223 q 0,-0.705 -0.319,-1.233 l -2.183,1.233 0.973,32.389"
         fill="url(#D)"
         id="path17"
         style="fill:url(#D)" />
      <path
         d="m 35.099,9.605 q 0.973,-1.117 2.224,-0.419 l 36.425,20.941 q 0.619,0.345 0.932,0.861 L 72.497,32.221 35.099,9.605 M 73.748,59.447 34.821,37.109 v 4.468 q 0,1.117 0.973,1.675 l 36.981,21.221 q 0.973,0.558 0.973,-0.558 z"
         fill="#e3e3e3"
         id="path18" />
      <path
         d="M 34.821,37.109 V 10.304 q 0,-1.117 0.973,-0.558 l 36.981,21.221 q 0.973,0.558 0.973,1.675 V 59.447 L 34.821,37.109"
         fill="#262626"
         id="path19" />
      <path
         d="M 72.498,57.352 V 32.222 L 36.073,11.281 v 25.13 l 36.425,20.941"
         fill="url(#E)"
         id="path20"
         style="fill:url(#E)" />
      <path
         d="m 61.442,73.755 q 0.067,-0.038 0.017,0.287"
         fill="#c1c1c1"
         fill-opacity="0.56"
         id="path21" />
      <path
         d="M 45.486,78.607 15.021,60.403 27.841,52.871 58.306,70.917 Z"
         fill="#eceff1"
         id="path22" />
      <g
         fill="#c9c9c9"
         id="g24">
        <path
           d="M 58.441,70.942 45.46,78.728 V 80 l 12.981,-7.786 z"
           id="path23" />
        <path
           d="M 45.46,80 V 78.729 L 14.61,60.296 v 1.271 L 45.46,80"
           id="path24" />
      </g>
      <path
         fill="#646464"
         d="M 45.46,78.728 14.61,60.295 27.591,52.668 58.441,70.942 Z M 26.522,66.652 36.907,72.849 38.74,71.737 28.355,65.54 Z m 27.795,3.814 1.833,1.112 1.069,-0.636 -1.833,-1.112 z m -2.138,-1.271 1.833,1.112 1.069,-0.636 -1.833,-1.112 z m -2.138,-1.271 1.833,1.112 1.069,-0.636 -1.833,-1.112 z m -2.138,-1.271 1.833,1.112 1.069,-0.636 -1.833,-1.112 z m -2.138,-1.271 1.833,1.112 1.069,-0.636 -1.833,-1.112 z m -2.138,-1.271 1.833,1.112 1.069,-0.636 -1.833,-1.112 z m -2.138,-1.271 1.833,1.112 1.069,-0.636 -1.833,-1.112 z m -2.138,-1.271 1.833,1.112 1.069,-0.636 -1.833,-1.112 z m -2.138,-1.271 1.833,1.112 1.069,-0.636 -1.833,-1.112 z m -2.138,-1.271 1.833,1.112 1.069,-0.636 -1.833,-1.112 z m -2.138,-1.271 1.833,1.112 1.069,-0.636 -1.833,-1.112 z m -2.138,-1.271 1.833,1.112 1.069,-0.636 -1.833,-1.112 z m -2.139,-1.275 1.833,1.112 1.069,-0.636 -1.833,-1.112 z m -2.138,-1.271 1.833,1.112 1.069,-0.636 -1.833,-1.112 z m 24.283,17.003 3.207,1.907 1.833,-1.112 -3.207,-1.907 z M 48.667,69.671 50.5,70.783 52.333,69.671 50.5,68.559 Z M 46.529,68.4 48.362,69.512 50.195,68.4 48.362,67.288 Z m -2.138,-1.271 1.833,1.112 1.833,-1.112 -1.833,-1.112 z m -2.138,-1.271 1.833,1.112 1.833,-1.112 -1.833,-1.112 z m -2.138,-1.271 1.833,1.112 1.833,-1.112 -1.833,-1.112 z m -2.138,-1.271 1.833,1.112 1.833,-1.112 -1.833,-1.112 z m -2.138,-1.271 1.833,1.112 1.833,-1.112 -1.833,-1.112 z m -2.139,-1.273 1.833,1.112 1.833,-1.112 -1.833,-1.112 z m -2.138,-1.271 1.833,1.112 1.833,-1.112 -1.833,-1.112 z m -2.138,-1.271 1.833,1.112 1.833,-1.112 -1.833,-1.112 z m -2.138,-1.271 1.833,1.112 1.833,-1.112 -1.833,-1.112 z m -2.902,-1.748 2.596,1.589 1.833,-1.112 -2.596,-1.589 z m 25.352,17.638 2.138,1.271 1.833,-1.112 -2.138,-1.271 z m -2.138,-1.271 1.833,1.112 1.833,-1.112 -1.833,-1.112 z m -2.138,-1.271 1.833,1.112 1.833,-1.112 -1.833,-1.112 z m -2.138,-1.271 1.833,1.112 1.833,-1.112 -1.833,-1.112 z m -2.138,-1.271 1.833,1.112 1.833,-1.112 -1.833,-1.112 z m -2.138,-1.271 1.833,1.112 1.833,-1.112 -1.833,-1.112 z m -2.138,-1.271 1.833,1.112 1.833,-1.112 -1.833,-1.112 z m -2.138,-1.271 1.833,1.112 1.833,-1.112 -1.833,-1.112 z m -2.138,-1.271 1.833,1.112 1.833,-1.112 -1.833,-1.112 z m -2.138,-1.271 1.833,1.112 1.833,-1.112 -1.833,-1.112 z m -2.138,-1.271 1.833,1.112 1.833,-1.112 -1.833,-1.112 z m -2.138,-1.271 1.833,1.112 1.833,-1.112 -1.833,-1.112 z m -2.138,-1.271 1.833,1.112 1.833,-1.112 -1.833,-1.112 z m -1.833,-1.112 1.527,0.953 1.833,-1.112 -1.527,-0.953 z m 22.145,15.732 1.833,1.112 1.833,-1.112 -1.833,-1.112 z m 2.138,1.271 3.207,1.907 1.833,-1.112 -3.207,-1.907 z m -4.276,-2.543 1.833,1.112 1.833,-1.112 -1.833,-1.112 z m -2.138,-1.271 1.833,1.112 1.833,-1.112 -1.833,-1.112 z m -4.276,-2.542 1.833,1.112 1.833,-1.112 -1.833,-1.112 z m 2.138,1.271 1.833,1.112 1.833,-1.112 -1.833,-1.112 z m -6.414,-3.814 1.833,1.112 1.833,-1.112 -1.833,-1.112 z m 2.138,1.271 1.833,1.112 1.833,-1.112 -1.833,-1.112 z m -6.414,-3.814 1.833,1.112 1.833,-1.112 -1.833,-1.112 z m 2.138,1.271 1.833,1.112 1.833,-1.112 -1.833,-1.112 z m -6.414,-3.814 1.833,1.112 1.833,-1.112 -1.833,-1.112 z m 2.138,1.271 1.833,1.112 1.833,-1.112 -1.833,-1.112 z m -5.04,-3.019 2.596,1.589 1.833,-1.112 -2.596,-1.589 z m 23.519,16.526 3.971,2.384 1.833,-1.112 -3.971,-2.384 z m -2.138,-1.271 1.833,1.112 1.833,-1.112 -1.833,-1.112 z m -2.138,-1.271 1.833,1.112 1.833,-1.112 -1.833,-1.112 z m -2.138,-1.271 1.833,1.112 1.833,-1.112 -1.833,-1.112 z m -2.138,-1.271 1.833,1.112 1.833,-1.112 -1.833,-1.112 z m -2.138,-1.271 1.833,1.112 1.833,-1.112 -1.833,-1.112 z m -2.138,-1.271 1.833,1.112 1.833,-1.112 -1.833,-1.112 z m -2.141,-1.275 1.833,1.112 1.833,-1.112 -1.833,-1.112 z m -2.138,-1.271 1.833,1.112 1.833,-1.112 -1.833,-1.112 z m -2.138,-1.271 1.833,1.112 1.833,-1.112 -1.833,-1.112 z m -2.138,-1.271 1.833,1.112 1.833,-1.112 -1.833,-1.112 z m -4.276,-2.543 3.971,2.384 1.833,-1.112 -3.971,-2.384 z m -2.138,1.271 1.833,1.112 1.833,-1.112 -1.833,-1.112 z m 2.138,1.271 1.833,1.112 1.833,-1.112 -1.833,-1.112 z m 2.138,1.271 1.833,1.112 1.833,-1.112 -1.833,-1.112 z m 2.138,1.271 1.833,1.112 1.833,-1.112 -1.833,-1.112 z m 2.138,1.271 1.833,1.112 1.833,-1.112 -1.833,-1.112 z m 12.829,7.627 1.833,1.112 1.833,-1.112 -1.833,-1.112 z m 5.345,1.907 1.833,1.112 0.764,-0.477 -1.833,-1.112 z m -1.069,0.636 1.833,1.112 0.764,-0.477 -1.833,-1.112 z m 2.138,1.271 1.833,1.112 0.764,-0.477 -1.833,-1.112 z m -4.276,-2.542 1.833,1.112 0.764,-0.477 -1.833,-1.112 z"
         id="path25" />
    </g>
  </symbol>
</svg>
