<?xml version="1.0" encoding="UTF-8" standalone="no"?>
<svg
   viewBox="0 0 81 81"
   fill="#ffffff"
   fill-rule="evenodd"
   stroke="#000000"
   stroke-linecap="round"
   stroke-linejoin="round"
   version="1.1"
   id="svg13"
   sodipodi:docname="repeater.svg"
   width="81"
   height="81"
   inkscape:version="1.4.3 (0d15f75, 2025-12-25)"
   xmlns:inkscape="http://www.inkscape.org/namespaces/inkscape"
   xmlns:sodipodi="http://sodipodi.sourceforge.net/DTD/sodipodi-0.dtd"
   xmlns:xlink="http://www.w3.org/1999/xlink"
   xmlns="http://www.w3.org/2000/svg"
   xmlns:svg="http://www.w3.org/2000/svg">
  <sodipodi:namedview
     id="namedview13"
     pagecolor="#ffffff"
     bordercolor="#000000"
     borderopacity="0.25"
     inkscape:showpageshadow="2"
     inkscape:pageopacity="0.0"
     inkscape:pagecheckerboard="0"
     inkscape:deskcolor="#d1d1d1"
     inkscape:zoom="4.0185576"
     inkscape:cx="76.76884"
     inkscape:cy="41.681623"
     inkscape:window-width="1920"
     inkscape:window-height="1009"
     inkscape:window-x="-8"
     inkscape:window-y="-8"
     inkscape:window-maximized="1"
     inkscape:current-layer="svg13" />
  <g
     id="use1"
     transform="translate(0.75,5.75)">
    <g
       stroke="none"
       id="g26">
      <path
         d="M 50.831,46.338 79.52,29.824 29.165,0 0.714,16.884 Z"
         fill="#e0e0e0"
         id="path14" />
      <path
         d="M 49.998,47.57 V 69.507 L 0,39.929 V 17.623 Z"
         fill="#9e9e9e"
         id="path15" />
      <path
         d="M 49.998,69.507 0,39.93 c 0.119,0.37 0,0.37 0.357,0.616 L 50.355,70"
         fill="#757575"
         id="path16" />
      <path
         d="M 49.998,47.571 0,17.623 c 0,-0.246 0,-0.37 0.714,-0.739 L 50.95,46.338 c -0.714,0.493 -0.833,0.616 -0.952,1.232 z"
         fill="#bdbdbd"
         id="path17" />
      <path
         d="M 51.903,45.722 77.497,30.564 c 1.786,-1.109 2.5,-1.109 2.5,0.739 v 19.718 c 0,1.109 0.119,1.725 -1.19,2.465 L 51.427,69.63 c -0.952,0.616 -1.548,0.493 -1.429,-0.863 V 48.31 c 0,-1.232 -0.238,-1.479 1.905,-2.588 z"
         fill="#eeeeee"
         id="path18" />
      <g
         fill="#546e7a"
         id="g20">
        <use
           xlink:href="#C"
           id="use18" />
        <use
           xlink:href="#C"
           x="7.474"
           y="4.539"
           id="use19" />
        <use
           xlink:href="#C"
           x="14.948"
           y="9.0790005"
           id="use20" />
      </g>
      <g
         fill="#bdbdbd"
         id="g25">
        <path
           d="M 38.815,10.108 37.668,9.423 36.584,9.763 36.212,9.541 40.417,8.277 40.733,8.466 38.62,10.981 38.25,10.76 38.816,10.11 Z M 38.118,9.284 39.048,9.84 40.06,8.678 Z"
           id="path20" />
        <use
           xlink:href="#D"
           id="use21" />
        <path
           d="m 33.05,6.267 -1.237,0.739 -0.361,-0.216 3.16,-1.889 1.009,0.603 c 0.299,0.179 0.446,0.372 0.439,0.579 -0.007,0.207 -0.155,0.397 -0.446,0.571 -0.307,0.183 -0.626,0.275 -0.958,0.275 -0.332,0 -0.652,-0.093 -0.962,-0.278 L 33.049,6.266 Z m 0.341,-0.204 0.648,0.388 a 1.14,1.14 0 0 0 0.601,0.171 1.19,1.19 0 0 0 0.61,-0.18 C 35.438,6.329 35.538,6.209 35.548,6.08 35.558,5.951 35.476,5.832 35.301,5.722 l -0.669,-0.4 -1.241,0.742 z"
           id="path21" />
        <use
           xlink:href="#E"
           id="use22" />
        <path
           d="m 43.423,10.41 -0.88,-0.526 -2.819,1.685 -0.359,-0.215 2.819,-1.685 -0.878,-0.525 0.341,-0.204 2.116,1.265 -0.341,0.204 z"
           id="path22" />
        <use
           xlink:href="#D"
           x="5.164"
           y="2.8299999"
           id="use23" />
        <use
           xlink:href="#D"
           x="12.311"
           y="6.96"
           id="use24" />
        <use
           xlink:href="#E"
           x="17.035"
           y="9.7060003"
           id="use25" />
      </g>
      <path
         d="m 36.648,44.609 -2.139,1.295 2.098,3.718 0.807,-0.501 -0.565,-1.003 c 1.19,0.543 2.26,2.235 2.603,2.945 0.383,0.752 0.908,2.423 0.666,3.718 l 1.352,1.17 c 0.363,-2.423 -0.565,-4.533 -1.09,-5.535 -0.827,-1.556 -1.997,-3.05 -3.531,-3.969 l 0.636,-0.376 z m 1.875,15.686 2.139,-1.295 -2.098,-3.718 -0.807,0.501 0.565,1.003 c -1.19,-0.543 -2.26,-2.235 -2.603,-2.945 -0.383,-0.752 -0.908,-2.423 -0.666,-3.718 l -1.352,-1.17 c -0.363,2.423 0.565,4.533 1.09,5.535 0.827,1.556 1.997,3.05 3.531,3.969 l -0.636,0.376 z"
         fill="#546e7a"
         id="path25" />
    </g>
  </g>
  <defs
     id="defs13">
    <path
       id="C"
       d="M 9.718,39.451 V 34.912 L 8.65,32.642 6.159,31.129 4.735,32.264 v 4.161 z" />
    <path
       id="D"
       d="m 31.759,5.385 -1.186,-0.709 -1.12,0.669 1.378,0.823 -0.341,0.204 -1.739,-1.039 3.16,-1.889 1.72,1.028 -0.341,0.204 -1.359,-0.812 -1.018,0.608 1.186,0.709 -0.341,0.204 z" />
    <path
       id="E"
       d="M 28.539,3.687 27.896,3.303 26.618,4.067 26.255,3.85 l 3.16,-1.889 0.906,0.542 c 0.308,0.184 0.464,0.374 0.468,0.571 0.004,0.197 -0.149,0.387 -0.459,0.572 -0.197,0.118 -0.414,0.193 -0.652,0.225 A 1.96,1.96 0 0 1 28.966,3.837 L 28.268,5.023 28.242,5.039 27.855,4.808 28.539,3.689 Z M 28.237,3.099 28.791,3.43 C 28.97,3.537 29.166,3.59 29.38,3.589 29.594,3.588 29.79,3.534 29.969,3.427 30.165,3.31 30.264,3.19 30.268,3.068 30.272,2.946 30.179,2.827 29.99,2.712 l -0.553,-0.33 z" />
  </defs>
</svg>
