<?xml version="1.0" encoding="UTF-8" standalone="no"?>
<svg
   viewBox="0 0 52 52"
   fill="#ffffff"
   fill-rule="evenodd"
   stroke="#000000"
   stroke-linecap="round"
   stroke-linejoin="round"
   version="1.1"
   id="svg34"
   sodipodi:docname="patch.svg"
   width="52"
   height="52"
   inkscape:version="1.4.3 (0d15f75, 2025-12-25)"
   xmlns:inkscape="http://www.inkscape.org/namespaces/inkscape"
   xmlns:sodipodi="http://sodipodi.sourceforge.net/DTD/sodipodi-0.dtd"
   xmlns="http://www.w3.org/2000/svg"
   xmlns:svg="http://www.w3.org/2000/svg">
  <sodipodi:namedview
     id="namedview34"
     pagecolor="#ffffff"
     bordercolor="#000000"
     borderopacity="0.25"
     inkscape:showpageshadow="2"
     inkscape:pageopacity="0.0"
     inkscape:pagecheckerboard="true"
     inkscape:deskcolor="#d1d1d1"
     inkscape:zoom="6.1136365"
     inkscape:cx="13.003717"
     inkscape:cy="33.286245"
     inkscape:window-width="1920"
     inkscape:window-height="1009"
     inkscape:window-x="-8"
     inkscape:window-y="-8"
     inkscape:window-maximized="1"
     inkscape:current-layer="svg34" />
  <style
     id="style1"><![CDATA[.B{fill:#eee}.C{fill:#464646}.D{fill:#e0e0e0}.E{fill:#757575}]]></style>
  <defs
     id="defs34">
    <path
       id="C"
       d="M 9.538,21.587 V 19.815 Q 9.509,19.641 9.363,19.554 L 4.795,16.968 Q 4.649,16.91 4.649,17.055 v 1.888 q 0,0.087 0.146,0.174 l 4.568,2.574 q 0.175,0.07 0.175,-0.105 z" />
    <path
       id="D"
       d="m 5.538,25.269 v 2.704 l 0.659,1.352 1.539,0.901 0.879,-0.676 v -2.479 z" />
    <path
       id="E"
       d="m 15.274,29.373 -4.903,-2.782 v 5.787 l 4.903,2.782 z" />
    <path
       id="F"
       d="M 2.605,12.123 Q 1.826,11.733 1.733,12.621 1.671,13.658 2.564,14.1 3.25,14.353 3.364,13.7 3.478,12.663 2.606,12.124 Z" />
    <path
       id="G"
       d="M 2.594,12.216 Q 1.869,11.853 1.782,12.679 1.724,13.644 2.555,14.055 3.193,14.29 3.299,13.683 3.405,12.718 2.594,12.216 Z" />
  </defs>
  <rect
     style="fill:#ffffff;stroke:#000000;stroke-width:2;stroke-linecap:square;stroke-linejoin:miter;stroke-dasharray:none"
     id="rect1"
     width="40"
     height="40"
     x="6"
     y="6" />
  <path
     id="rect1-9"
     style="fill:#000000;stroke:none;stroke-width:7.55904;stroke-linecap:square"
     d="m 21,18.5 v 5 h -5 v 10 h 20 v -10 h -5 v -5 z" />
</svg>
