<?xml version="1.0" encoding="UTF-8" standalone="no"?>
<svg
   viewBox="0 0 68.473 68.473"
   fill="#ffffff"
   fill-rule="evenodd"
   stroke="#000000"
   stroke-linecap="round"
   stroke-linejoin="round"
   version="1.1"
   id="svg15"
   sodipodi:docname="screen.svg"
   width="68.473"
   height="68.473"
   inkscape:version="1.4.3 (0d15f75, 2025-12-25)"
   xmlns:inkscape="http://www.inkscape.org/namespaces/inkscape"
   xmlns:sodipodi="http://sodipodi.sourceforge.net/DTD/sodipodi-0.dtd"
   xmlns:xlink="http://www.w3.org/1999/xlink"
   xmlns="http://www.w3.org/2000/svg"
   xmlns:svg="http://www.w3.org/2000/svg">
  <sodipodi:namedview
     id="namedview15"
     pagecolor="#ffffff"
     bordercolor="#000000"
     borderopacity="0.25"
     inkscape:showpageshadow="2"
     inkscape:pageopacity="0.0"
     inkscape:pagecheckerboard="0"
     inkscape:deskcolor="#d1d1d1"
     inkscape:zoom="2.4907407"
     inkscape:cx="18.869888"
     inkscape:cy="79.695167"
     inkscape:window-width="1920"
     inkscape:window-height="1009"
     inkscape:window-x="1912"
     inkscape:window-y="-8"
     inkscape:window-maximized="1"
     inkscape:current-layer="svg15" />
  <g
     id="g34"
     transform="translate(9.2364998,1.0745513e-4)">
    <path
       d="m 12.121,54.867118 q -0.126,0.73 1.338,1.618 l 9.879,5.916 q 0.962,0.567 1.924,0.506 v 1.393 q -0.962,0.061 -1.924,-0.526 l -9.879,-5.916 q -1.464,-0.888 -1.338,-1.618 l -0.009,-1.372"
       fill="#c9c9c9"
       id="path16"
       style="stroke:none" />
    <path
       d="m 33.565,55.210118 -5.21,5.877 q -1.547,1.723 -3.094,1.821 v 1.392 q 1.547,-0.098 3.094,-1.841 l 5.21,-5.877 z"
       fill="url(#A)"
       id="path17"
       style="fill:url(#linearGradient24);stroke:none" />
    <path
       d="m 24.569,50.065118 -10.483,3.462 q -3.606,1.15 -0.627,2.958 l 9.879,5.916 q 2.509,1.479 5.018,-1.315 l 5.21,-5.877 z"
       fill="url(#B)"
       id="path18"
       style="fill:url(#linearGradient25);stroke:none" />
    <path
       d="m 48.097,68.415118 q 1.903,-0.343 1.903,-2.058 v -37.73 q 0,-0.867 -0.398,-1.514 l -2.717,1.514 1.211,39.788"
       fill="url(#C)"
       id="path19"
       style="fill:url(#linearGradient26);stroke:none" />
    <path
       d="M 0.346,0.84411839 Q 1.557,-0.52788162 3.114,0.33011838 L 48.443,26.055118 q 0.77,0.424 1.16,1.058 l -2.717,1.514 L 0.346,0.84411839 M 48.443,62.070118 0,34.630118 v 5.488 q 0,1.372 1.211,2.058 l 46.021,26.068 q 1.211,0.686 1.211,-0.686 z"
       fill="#e3e3e3"
       id="path20"
       style="stroke:none" />
    <path
       d="M 0,34.630118 V 1.7021184 q 0,-1.37200002 1.211,-0.686 L 47.232,27.084118 q 1.211,0.686 1.211,2.058 v 32.928 L 0,34.630118"
       fill="#262626"
       id="path21"
       style="stroke:none" />
    <path
       d="m 46.886,59.497118 v -30.87 L 1.557,2.9021184 V 33.772118 l 45.329,25.725"
       fill="url(#D)"
       id="path22"
       style="fill:url(#linearGradient27);stroke:none" />
  </g>
  <defs
     id="defs8">
    <linearGradient
       id="A"
       x1="26.429493"
       y1="57.113132"
       x2="35.117607"
       y2="57.113132"
       gradientTransform="scale(0.95578834,1.0462567)"
       gradientUnits="userSpaceOnUse">
      <stop
         offset="0%"
         stop-color="#c9c9c9"
         id="stop1" />
      <stop
         offset="100%"
         stop-color="#b0b0b0"
         id="stop2" />
    </linearGradient>
    <linearGradient
       id="B"
       x1="23.152519"
       y1="64.696198"
       x2="12.194771"
       y2="81.298843"
       gradientTransform="scale(1.292244,0.77384765)"
       gradientUnits="userSpaceOnUse">
      <stop
         offset="0%"
         stop-color="#b0b0b0"
         id="stop3" />
      <stop
         offset="100%"
         stop-color="#fff"
         id="stop4" />
    </linearGradient>
    <linearGradient
       id="C"
       x1="170.72237"
       y1="13.117292"
       x2="182.06502"
       y2="13.117292"
       gradientTransform="scale(0.27462716,3.6413005)"
       gradientUnits="userSpaceOnUse">
      <stop
         offset="0%"
         stop-color="#d6d6d6"
         id="stop5" />
      <stop
         offset="100%"
         stop-color="#c9c9c9"
         id="stop6" />
    </linearGradient>
    <linearGradient
       id="D"
       x1="52.389488"
       y1="2.5971465"
       x2="1.7397609"
       y2="53.246872"
       gradientTransform="scale(0.89495055,1.1173802)"
       gradientUnits="userSpaceOnUse">
      <stop
         offset="0%"
         stop-color="#00387f"
         id="stop7" />
      <stop
         offset="100%"
         stop-color="#0af"
         id="stop8" />
    </linearGradient>
    <linearGradient
       inkscape:collect="always"
       xlink:href="#A"
       id="linearGradient24"
       gradientUnits="userSpaceOnUse"
       gradientTransform="matrix(0.95578834,0,0,1.0462567,0,1.1838417e-4)"
       x1="26.429493"
       y1="57.113132"
       x2="35.117607"
       y2="57.113132" />
    <linearGradient
       inkscape:collect="always"
       xlink:href="#B"
       id="linearGradient25"
       gradientUnits="userSpaceOnUse"
       gradientTransform="matrix(1.292244,0,0,0.77384765,0,1.1838417e-4)"
       x1="23.152519"
       y1="64.696198"
       x2="12.194771"
       y2="81.298843" />
    <linearGradient
       inkscape:collect="always"
       xlink:href="#C"
       id="linearGradient26"
       gradientUnits="userSpaceOnUse"
       gradientTransform="matrix(0.27462716,0,0,3.6413005,0,1.1838417e-4)"
       x1="170.72237"
       y1="13.117292"
       x2="182.06502"
       y2="13.117292" />
    <linearGradient
       inkscape:collect="always"
       xlink:href="#D"
       id="linearGradient27"
       gradientUnits="userSpaceOnUse"
       gradientTransform="matrix(0.89495055,0,0,1.1173802,0,1.1838417e-4)"
       x1="52.389488"
       y1="2.5971465"
       x2="1.7397609"
       y2="53.246872" />
  </defs>
</svg>
