<?xml version="1.0" encoding="UTF-8" standalone="no"?>
<!-- Created with Inkscape (http://www.inkscape.org/) -->

<svg
   width="20mm"
   height="20mm"
   viewBox="0 0 20 20"
   version="1.1"
   id="svg1"
   xml:space="preserve"
   inkscape:version="1.4.3 (0d15f75, 2025-12-25)"
   sodipodi:docname="logo.svg"
   xmlns:inkscape="http://www.inkscape.org/namespaces/inkscape"
   xmlns:sodipodi="http://sodipodi.sourceforge.net/DTD/sodipodi-0.dtd"
   xmlns="http://www.w3.org/2000/svg"
   xmlns:svg="http://www.w3.org/2000/svg"><sodipodi:namedview
     id="namedview1"
     pagecolor="#ffffff"
     bordercolor="#000000"
     borderopacity="0.25"
     inkscape:showpageshadow="2"
     inkscape:pageopacity="0.0"
     inkscape:pagecheckerboard="0"
     inkscape:deskcolor="#d1d1d1"
     inkscape:document-units="mm"
     inkscape:zoom="7.9999999"
     inkscape:cx="27.9375"
     inkscape:cy="18.0625"
     inkscape:window-width="1920"
     inkscape:window-height="1009"
     inkscape:window-x="-8"
     inkscape:window-y="-8"
     inkscape:window-maximized="1"
     inkscape:current-layer="layer1" /><defs
     id="defs1" /><g
     inkscape:label="Capa 1"
     inkscape:groupmode="layer"
     id="layer1"
     transform="translate(-11.933329,-56.793636)"><path
       id="path1-1"
       style="fill:#000000;stroke:none;stroke-width:0.156165"
       d="m 16.933328,65.126973 v 3.333334 a 5.0000467,3.333192 0 0 0 5.000259,3.333333 5.0000467,3.333192 0 0 0 4.999741,-3.333333 v -3.333334 a 5.0000467,3.333192 0 0 1 -4.999741,3.333334 5.0000467,3.333192 0 0 1 -5.000259,-3.333334 z" /><path
       style="fill:#808080;stroke:none;stroke-width:0.156165"
       d="m 21.933587,61.79364 a 5.0000467,3.333192 0 0 0 -5.000259,3.333333 5.0000467,3.333192 0 0 0 5.000259,3.333334 5.0000467,3.333192 0 0 0 4.999741,-3.333334 5.0000467,3.333192 0 0 0 -4.999741,-3.333333 z"
       id="path3" /><path
       style="fill:#ffffff;stroke:none;stroke-width:0.156165"
       d="m 23.134557,63.627043 1.298642,0.750308 1.299157,0.749622 -1.299157,0.749622 -1.298642,0.750309 V 65.62718 H 18.1343 v -1.000414 h 5.000257 z"
       id="path1" /><path
       style="fill:#ffffff;stroke-width:0.638001"
       d="m 28.600355,70.972746 v 0.819911 h 0.07499 c 0.260805,0 0.513278,-0.05166 0.757418,-0.154151 0.24414,-0.102483 0.459951,-0.249972 0.645764,-0.441618 0.185813,-0.191647 0.323298,-0.399957 0.410788,-0.627433 v -8.33e-4 c 0.08332,-0.221643 0.137486,-0.452451 0.164983,-0.691591 v -0.0017 c 0.02333,-0.233308 0.03,-0.472449 0.02,-0.71909 -0.01006,-0.24164 -0.01499,-0.48328 -0.01499,-0.724087 0,-0.169149 0.03333,-0.327465 0.09749,-0.476615 v -8.34e-4 a 1.2515313,1.2515313 0 0 1 0.63743,-0.655763 1.1498756,1.1498756 0 0 1 0.46495,-0.09582 h 0.07415 V 66.38321 h -0.07499 c -0.163316,0 -0.317465,-0.03333 -0.464116,-0.100825 l -8.34e-4,-8.33e-4 A 1.1465427,1.1465427 0 0 1 31.014263,66.01658 l -0.0017,-0.0017 a 1.1790392,1.1790392 0 0 1 -0.255806,-0.387458 v -0.0017 a 1.1707067,1.1707067 0 0 1 -0.09832,-0.471616 c 0,-0.24164 0.005,-0.483281 0.01499,-0.724088 a 5.1444435,5.1444435 0 0 0 -0.02,-0.724922 v -8.33e-4 a 2.9471813,2.9471813 0 0 0 -0.164149,-0.686592 v -8.33e-4 a 1.8581324,1.8581324 0 0 0 -0.41161,-0.627429 1.94229,1.94229 0 0 0 -0.645764,-0.441619 1.9372906,1.9372906 0 0 0 -0.758251,-0.15415 h -0.07332 v 0.819911 h 0.07499 c 0.166648,0 0.322465,0.03166 0.468283,0.09582 0.144983,0.06833 0.271637,0.156649 0.380791,0.266638 0.105828,0.111652 0.191646,0.24164 0.257473,0.389124 0.06165,0.149984 0.09166,0.3083 0.09166,0.477448 0,0.18998 -0.0025,0.376626 -0.0091,0.559939 -0.0067,0.189981 -0.0067,0.37496 0,0.554108 0.0034,0.18498 0.01834,0.36246 0.04583,0.533275 0.02749,0.178315 0.07415,0.346629 0.139984,0.507445 a 1.9039608,1.9039608 0 0 0 0.614934,0.795748 1.9039608,1.9039608 0 0 0 -0.614934,0.795747 2.240591,2.240591 0 0 0 -0.139984,0.501612 c -0.0275,0.174981 -0.0425,0.352463 -0.04583,0.533276 a 7.6241754,7.6241754 0 0 0 0,0.55494 c 0.0067,0.186647 0.01006,0.374959 0.01006,0.564939 a 1.2257008,1.2257008 0 0 1 -0.730754,1.128212 1.1082134,1.1082134 0 0 1 -0.469116,0.100825 z"
       id="path2" /><path
       style="fill:#ffffff;stroke-width:0.638001"
       d="M 15.266324,62.613556 V 61.79364 h -0.07499 c -0.260807,0 -0.513281,0.05166 -0.757423,0.154151 a 1.9414685,1.9414685 0 0 0 -0.64577,0.441621 1.8581437,1.8581437 0 0 0 -0.410792,0.627436 v 8.34e-4 a 2.9513655,2.9513655 0 0 0 -0.164983,0.691596 v 0.0017 a 5.0661495,5.0661495 0 0 0 -0.02,0.719092 c 0.01,0.241643 0.015,0.483285 0.015,0.724094 0,0.169149 -0.03333,0.327466 -0.09749,0.476617 v 8.33e-4 a 1.2532054,1.2532054 0 0 1 -0.637435,0.655767 1.1465496,1.1465496 0 0 1 -0.464952,0.09582 h -0.07416 v 0.819917 h 0.07499 c 0.162483,0 0.316634,0.03333 0.463286,0.100826 l 8.33e-4,8.33e-4 c 0.148318,0.06498 0.274139,0.153318 0.379128,0.264973 l 0.0017,0.0017 c 0.108322,0.108322 0.194147,0.237475 0.255807,0.38746 l 8.34e-4,0.0017 c 0.06499,0.149984 0.09749,0.306636 0.09749,0.471619 0,0.241641 -0.005,0.483284 -0.015,0.724093 -0.01,0.246641 -0.0033,0.48745 0.02,0.724926 v 8.33e-4 c 0.0275,0.235809 0.08249,0.464953 0.16415,0.686596 v 8.33e-4 c 0.08832,0.227477 0.22581,0.436623 0.411624,0.627436 0.185815,0.191647 0.401626,0.339133 0.645768,0.441622 0.244141,0.102485 0.496615,0.154151 0.758256,0.154151 h 0.07416 V 70.9728 h -0.07499 c -0.16665,0 -0.322468,-0.03166 -0.46912,-0.09582 a 1.3440295,1.3440295 0 0 1 -0.380793,-0.266644 1.382359,1.382359 0 0 1 -0.257474,-0.389127 c -0.06166,-0.149984 -0.09166,-0.308301 -0.09166,-0.477451 0,-0.18998 0.0025,-0.377461 0.0092,-0.559943 0.0067,-0.18998 0.0067,-0.374961 0,-0.55411 a 3.8654388,3.8654388 0 0 0 -0.04583,-0.533278 2.2347719,2.2347719 0 0 0 -0.139986,-0.507448 1.9031391,1.9031391 0 0 0 -0.614104,-0.795753 1.9031391,1.9031391 0 0 0 0.614938,-0.795751 c 0.06666,-0.159985 0.112488,-0.327467 0.139985,-0.501616 0.0275,-0.174983 0.0425,-0.352465 0.04583,-0.53328 0.0067,-0.183314 0.0067,-0.368295 0,-0.554943 -0.0067,-0.186647 -0.01,-0.374962 -0.01,-0.564942 a 1.224875,1.224875 0 0 1 0.730759,-1.128218 1.1082202,1.1082202 0 0 1 0.469119,-0.100826 z"
       id="path1-6" /></g></svg>
